{"glyphs":{"0":{"ha":410,"x_min":0,"x_max":344,"o":"m 165 686 q 196 685 182 689 q 225 678 210 682 q 244 674 236 675 q 258 671 251 674 q 281 641 274 661 q 297 606 289 621 q 317 572 306 590 q 333 539 329 554 q 344 477 343 510 q 340 413 344 444 q 326 350 335 381 q 308 297 317 319 q 254 202 289 244 q 175 144 219 160 q 131 140 151 138 q 93 152 111 143 q 62 174 75 161 q 40 200 49 188 q 8 285 17 238 q 2 381 0 332 q 16 474 4 429 q 43 554 28 519 q 81 620 58 585 q 131 674 103 656 q 144 681 138 678 q 165 686 150 683 m 175 606 q 139 566 157 594 q 110 510 121 538 q 90 447 97 481 q 81 382 82 414 q 84 319 79 354 q 101 258 89 283 q 132 223 113 232 q 179 239 151 214 q 208 275 194 253 q 234 325 222 297 q 253 385 246 353 q 263 449 260 417 q 257 509 265 488 q 236 551 249 531 q 227 569 231 558 q 219 585 224 581 q 211 587 217 586 q 201 590 206 588 q 189 603 190 597 q 179 607 188 608 q 176 606 176 607 q 175 606 176 606 z "},"1":{"ha":317,"x_min":1,"x_max":292,"o":"m 189 575 l 183 575 q 156 585 167 575 q 144 611 144 596 q 155 633 144 619 q 181 659 165 646 q 215 682 196 672 q 251 692 235 692 q 281 678 271 692 q 292 647 292 665 q 280 594 292 622 q 261 549 268 567 q 212 425 235 485 q 169 294 189 365 q 160 264 165 279 q 154 235 156 249 q 155 228 154 232 q 156 221 156 224 q 151 215 154 218 q 149 208 149 211 q 163 192 151 197 q 174 167 174 186 q 163 140 174 151 q 135 128 153 128 q 116 133 124 128 q 93 138 108 138 q 63 135 78 138 q 36 133 47 133 q 10 148 19 136 q 1 175 1 160 q 9 198 1 186 q 33 210 17 210 l 51 210 q 69 222 61 210 q 82 251 76 233 q 92 289 88 269 q 100 325 96 308 q 142 453 119 390 q 189 575 164 515 z "},"2":{"ha":372,"x_min":0,"x_max":331,"o":"m 135 215 l 142 215 q 168 210 157 215 q 190 206 179 206 q 203 209 199 206 q 211 217 207 213 q 221 224 215 221 q 238 228 226 228 q 272 213 261 228 q 283 179 283 199 q 269 142 283 158 q 226 126 256 126 q 169 133 199 126 q 110 139 139 139 q 72 135 90 139 q 38 132 53 132 q 15 142 31 132 q 0 172 0 151 q 8 197 0 185 q 28 221 17 210 q 51 242 39 232 q 69 260 63 253 q 128 321 96 288 q 188 392 160 354 q 234 475 215 431 q 253 569 253 519 q 251 601 253 585 q 242 617 249 617 q 215 608 222 617 q 203 590 207 600 q 193 572 199 581 q 171 564 188 564 q 142 576 156 564 q 129 608 129 588 q 139 640 129 625 q 165 667 149 656 q 201 686 181 679 q 240 693 221 693 q 309 658 288 693 q 331 581 331 624 q 312 472 331 524 q 265 375 293 421 q 201 289 236 329 q 135 215 167 249 z "},"3":{"ha":404,"x_min":4,"x_max":361,"o":"m 258 475 q 292 422 282 451 q 303 360 303 392 q 290 280 303 321 q 251 206 276 239 q 192 151 226 172 q 117 129 158 129 q 85 137 104 129 q 47 156 65 144 q 17 183 29 168 q 4 213 4 197 q 17 245 4 232 q 47 258 29 258 q 67 251 58 258 q 83 234 75 243 q 100 217 92 225 q 119 210 108 210 q 156 222 138 210 q 189 254 174 233 q 214 302 204 275 q 224 358 224 329 q 219 396 224 378 q 193 414 215 414 q 175 413 185 414 q 157 413 165 413 q 131 422 142 413 q 119 453 119 432 q 144 490 119 471 q 199 530 169 510 q 254 571 229 550 q 279 613 279 592 q 268 618 279 618 q 221 613 246 618 q 186 599 196 607 q 178 589 181 594 q 171 578 175 583 q 161 570 167 574 q 146 567 156 567 q 117 578 131 567 q 104 610 104 590 q 122 647 104 631 q 165 675 139 664 q 220 692 192 686 q 272 697 249 697 q 337 679 313 697 q 361 625 361 661 q 351 577 361 599 q 327 538 342 556 q 294 504 313 519 q 258 475 275 489 z "},"4":{"ha":368,"x_min":3,"x_max":315,"o":"m 204 696 q 233 687 215 696 q 250 657 250 678 q 246 638 250 649 q 235 618 242 628 q 224 599 229 608 q 214 585 218 590 q 164 503 188 544 q 113 415 140 463 q 101 399 110 410 q 93 383 93 388 q 104 381 93 383 q 130 375 115 378 q 158 370 144 372 q 174 368 171 368 q 183 381 178 368 q 194 410 189 393 q 205 443 200 426 q 213 469 210 460 q 221 505 217 486 q 232 539 225 524 q 249 565 239 554 q 279 575 260 575 q 303 565 290 574 q 315 535 315 556 q 307 499 315 518 q 294 461 299 479 q 272 385 283 418 q 244 311 260 353 q 230 272 238 292 q 219 238 222 253 q 221 226 219 231 q 222 217 222 222 q 217 194 222 208 q 202 167 211 181 q 181 144 193 154 q 156 135 168 135 q 130 147 140 135 q 119 175 119 158 q 135 231 119 203 q 150 286 150 258 q 127 294 150 292 q 76 301 104 296 q 26 322 49 307 q 3 368 3 336 q 22 433 3 397 q 67 508 42 469 q 119 583 93 546 q 157 647 144 619 q 173 680 165 667 q 204 696 181 693 z "},"5":{"ha":428,"x_min":-1,"x_max":385,"o":"m 196 714 q 199 715 197 714 q 203 715 200 715 q 219 711 213 715 q 229 703 225 707 q 237 694 233 699 q 246 690 240 690 q 262 692 253 690 q 278 694 271 694 q 313 692 294 694 q 348 685 332 690 q 374 671 364 681 q 385 644 385 661 q 372 613 385 625 q 342 600 358 600 q 313 604 331 600 q 281 608 296 608 q 254 608 269 608 q 225 607 239 607 q 204 591 214 607 q 188 556 194 575 q 176 522 181 538 q 169 506 171 506 l 169 507 q 175 501 169 504 q 187 494 181 497 q 199 488 193 490 q 206 483 204 485 q 258 417 235 460 q 282 324 282 375 q 269 250 282 283 q 235 192 256 217 q 190 154 215 168 q 139 140 164 140 q 89 151 114 140 q 44 177 64 161 q 11 214 24 193 q -1 256 -1 235 q 15 314 -1 285 q 60 343 32 343 q 89 332 75 343 q 103 300 103 321 q 94 277 103 285 q 85 258 85 269 q 91 248 85 254 q 106 237 97 242 q 123 228 114 232 q 139 225 132 225 q 161 235 150 225 q 181 258 172 244 q 194 288 189 272 q 199 319 199 304 q 188 372 199 344 q 165 410 176 399 q 143 424 157 418 q 116 438 129 429 q 93 460 103 446 q 83 501 83 474 q 100 563 83 535 q 132 625 117 592 q 142 651 136 636 q 155 678 147 665 q 172 701 163 692 q 196 714 182 711 z "},"6":{"ha":361,"x_min":6,"x_max":326,"o":"m 124 439 q 244 408 204 436 q 283 314 283 381 q 265 246 283 278 q 222 190 247 214 q 168 153 196 167 q 122 140 140 140 q 71 153 93 140 q 34 189 49 167 q 13 238 19 211 q 6 293 6 265 q 19 398 6 349 q 53 490 32 447 q 99 569 74 532 q 146 636 124 606 q 200 700 171 671 q 271 729 229 729 q 310 718 293 729 q 326 679 326 707 q 316 652 326 665 q 289 639 306 639 q 276 642 281 639 q 265 646 272 646 q 233 623 253 644 q 194 569 214 601 q 155 502 174 538 q 124 439 136 467 m 104 354 q 87 319 90 340 q 83 288 83 299 q 94 241 83 261 q 122 221 104 221 q 146 231 132 221 q 172 257 160 242 q 194 289 185 272 q 203 318 203 306 q 187 349 203 340 q 147 358 171 358 q 125 358 139 358 q 104 354 111 358 z "},"7":{"ha":372,"x_min":-6,"x_max":349,"o":"m 232 607 q 158 606 194 606 q 88 601 121 606 q 72 597 79 599 q 54 594 64 594 q 22 610 35 596 q 8 642 8 625 q 31 674 8 663 q 83 689 53 685 q 147 694 114 693 q 201 694 179 694 q 250 694 224 694 q 298 691 276 694 q 334 678 319 688 q 349 647 349 668 q 338 610 349 628 q 319 581 328 593 q 258 485 288 531 q 201 393 229 439 q 147 298 174 347 q 93 193 119 249 q 73 159 85 176 q 38 142 61 142 q 7 154 19 142 q -6 182 -6 167 q 3 213 -6 196 q 18 242 11 229 q 60 325 40 285 q 104 404 81 365 q 172 508 139 461 q 232 607 204 554 z "},"8":{"ha":446,"x_min":4,"x_max":396,"o":"m 238 740 q 249 741 244 740 q 260 742 254 742 q 361 696 326 742 q 396 586 396 650 q 380 512 396 546 q 344 447 364 478 q 308 390 324 417 q 292 338 292 364 q 296 316 292 326 q 300 294 300 306 q 286 239 300 265 q 250 192 272 213 q 198 158 228 171 q 138 146 168 146 q 87 156 111 146 q 44 186 63 167 q 15 231 26 206 q 4 289 4 257 q 24 373 4 338 q 71 432 43 408 q 83 439 74 433 q 94 447 93 444 q 90 469 94 457 q 81 493 86 481 q 72 517 76 506 q 68 538 68 528 q 67 547 67 542 q 67 557 67 553 q 80 628 67 594 q 117 686 93 661 q 171 726 140 711 q 238 740 201 740 m 306 569 q 307 588 307 576 q 294 633 307 613 q 257 654 282 654 q 186 628 217 654 q 156 557 156 601 q 178 476 156 511 q 229 419 201 442 q 246 456 235 438 q 269 492 257 474 q 291 529 281 510 q 306 569 301 549 m 122 361 q 111 349 117 358 q 101 330 106 340 q 95 308 97 319 q 93 290 93 297 q 107 250 93 263 q 140 238 121 238 q 159 240 147 238 q 182 250 171 243 q 201 268 193 257 q 210 294 210 279 q 199 324 210 311 q 173 344 188 336 q 145 357 158 353 q 128 361 132 361 l 122 361 z "},"9":{"ha":536,"x_min":1,"x_max":461,"o":"m 340 396 q 306 385 319 390 q 268 379 292 379 q 204 392 232 379 q 157 425 176 404 q 127 472 138 446 q 117 525 117 499 q 133 606 117 568 q 176 671 149 643 q 238 714 203 699 q 310 729 272 729 q 377 713 349 729 q 424 668 406 696 q 452 604 443 640 q 461 529 461 568 q 417 349 461 432 q 299 204 374 265 q 237 161 271 182 q 157 140 203 140 q 103 149 131 140 q 53 172 75 157 q 16 208 31 188 q 1 256 1 229 q 11 288 1 275 q 44 301 21 301 q 74 290 65 301 q 90 267 82 279 q 110 243 97 254 q 157 232 124 232 q 209 249 182 233 q 261 288 236 264 q 307 340 286 311 q 340 396 328 368 m 207 517 q 232 481 213 493 q 263 468 251 468 q 306 478 288 468 q 339 503 325 489 q 360 532 353 518 q 367 554 367 546 q 350 615 367 594 q 311 636 333 636 q 273 628 292 636 q 240 607 254 621 q 215 574 225 593 q 206 532 206 554 q 207 517 206 522 z "},"\u0000":{"ha":0,"x_min":0,"x_max":0,"o":""},"\r":{"ha":300,"x_min":0,"x_max":0,"o":""}," ":{"ha":300,"x_min":0,"x_max":0,"o":""},"E":{"ha":563,"x_min":0,"x_max":664,"o":"m 269 486 q 201 543 231 510 q 172 636 172 576 q 198 728 172 686 q 264 801 224 771 q 356 849 304 832 q 460 865 407 865 q 512 859 485 865 q 563 840 539 853 q 601 806 586 826 q 617 757 617 785 q 603 726 617 738 q 572 714 590 714 q 543 724 551 714 q 528 746 535 733 q 508 768 521 758 q 465 778 496 778 q 387 766 424 778 q 322 735 350 754 q 277 690 293 715 q 261 636 261 664 q 278 587 261 604 q 323 560 296 569 q 381 544 350 550 q 438 531 411 539 q 483 512 465 524 q 500 478 500 500 q 487 449 500 458 q 453 434 474 439 q 408 426 432 429 q 364 419 385 424 q 242 383 294 404 q 146 321 190 363 q 128 304 138 314 q 108 283 118 294 q 92 258 99 272 q 86 228 86 244 q 106 183 86 203 q 155 149 126 163 q 213 128 183 135 q 261 121 242 121 q 367 141 319 121 q 452 194 414 161 q 520 268 490 226 q 574 351 550 310 q 592 376 581 364 q 618 389 603 389 q 651 376 638 389 q 664 346 664 363 q 649 297 664 325 q 612 238 635 268 q 563 179 589 207 q 513 132 536 151 q 403 63 464 93 q 263 33 342 33 q 163 49 210 33 q 79 93 115 65 q 22 158 43 121 q 0 235 0 194 q 26 320 0 281 q 91 392 51 360 q 178 449 131 425 q 269 486 225 472 z "},"F":{"ha":485,"x_min":-39,"x_max":703,"o":"m 283 403 q 338 406 308 403 q 392 407 367 408 q 438 397 418 406 q 461 367 457 389 q 456 333 465 347 q 426 317 446 319 q 409 319 415 315 q 393 326 403 324 q 342 328 372 331 q 289 324 313 325 q 271 322 282 322 q 257 319 260 322 q 251 310 254 318 q 246 294 249 303 q 240 276 243 285 q 236 263 238 267 q 217 203 225 231 q 200 146 208 176 q 190 114 196 131 q 183 85 183 97 q 188 72 185 78 q 190 58 190 65 q 176 30 189 39 q 147 22 163 21 q 118 32 132 22 q 103 58 104 42 l 103 81 q 109 119 104 97 q 121 165 114 142 q 135 210 128 188 q 149 251 143 233 q 153 264 150 256 q 160 281 157 272 q 166 297 164 290 q 167 306 168 304 q 153 301 165 308 q 136 293 140 293 q 110 299 122 292 q 92 317 99 306 q 87 342 86 329 q 99 367 88 356 q 117 377 106 374 q 143 383 129 381 q 170 387 153 386 q 194 393 188 388 q 201 404 197 394 q 209 425 206 414 q 216 447 213 436 q 221 461 219 457 q 257 565 240 515 q 294 664 274 614 q 184 635 235 650 q 89 590 133 621 q 62 569 78 583 q 43 544 46 556 q 44 531 42 538 q 44 517 47 524 q 18 492 40 501 q -22 500 -4 483 q -37 528 -35 511 q -33 564 -39 546 q -10 610 -26 590 q 26 644 7 629 q 151 708 78 683 q 303 749 224 733 q 319 750 310 750 q 332 753 329 750 q 342 770 338 757 q 349 793 346 783 q 358 813 354 804 q 367 831 363 822 q 378 858 372 843 q 390 888 383 874 q 406 911 397 901 q 426 924 415 921 q 463 915 447 926 q 479 882 479 904 q 472 862 479 869 q 460 846 465 854 q 446 814 453 831 q 432 779 439 797 q 426 775 429 775 q 426 771 424 775 q 440 771 428 769 q 466 774 451 772 q 494 778 481 776 q 511 781 507 781 q 571 784 540 783 q 628 780 601 785 q 673 763 654 775 q 699 725 692 750 q 697 697 703 710 q 681 676 692 683 q 658 667 671 668 q 633 676 646 667 q 626 690 628 682 q 618 701 625 697 q 591 704 611 706 q 560 703 571 703 q 502 698 528 700 q 446 692 476 696 q 417 689 435 689 q 392 683 400 689 q 383 672 388 681 q 375 653 379 664 q 367 631 371 642 q 361 615 363 621 q 322 510 340 561 q 283 403 303 458 z "},"G":{"ha":561,"x_min":-3,"x_max":588,"o":"m 401 363 q 364 356 382 360 q 326 350 346 353 q 290 340 307 346 q 256 336 272 333 q 231 353 239 340 q 225 385 222 367 q 239 406 228 399 q 265 419 250 414 q 297 426 281 424 q 329 432 314 429 q 376 440 351 436 q 425 447 400 444 q 445 449 435 450 q 458 451 456 449 q 467 467 465 456 q 475 486 468 479 q 514 499 489 503 q 544 469 539 494 q 544 463 544 467 q 544 456 543 458 q 560 443 547 449 q 578 429 572 438 q 583 394 588 410 q 568 368 579 378 q 541 358 557 358 q 511 372 525 358 q 453 243 483 313 q 397 106 424 174 q 378 57 388 82 q 365 10 368 32 q 366 -6 364 3 q 365 -21 368 -14 q 351 -40 361 -33 q 328 -47 340 -47 q 303 -42 315 -47 q 286 -24 292 -36 q 284 19 278 -4 q 297 63 290 43 q 311 103 304 85 q 324 138 318 121 q 287 111 304 124 q 251 90 269 99 q 211 76 233 81 q 158 74 189 71 q 78 101 110 78 q 27 163 46 125 q 3 247 8 200 q 3 342 -3 293 q 31 463 10 408 q 78 565 51 517 q 135 656 103 610 q 208 740 168 701 q 297 803 249 778 q 403 836 346 829 q 461 835 431 840 q 517 815 492 829 q 560 780 543 801 q 579 731 576 758 q 578 701 581 717 q 571 673 576 686 q 556 651 565 660 q 535 642 547 643 q 504 649 517 639 q 490 678 492 658 q 496 699 489 690 q 500 722 503 708 q 466 750 497 740 q 401 757 435 760 q 319 724 357 753 q 253 668 282 696 q 197 603 221 638 q 151 532 172 569 q 112 451 129 494 q 86 358 94 407 q 79 287 79 325 q 90 218 79 249 q 122 168 100 188 q 185 153 144 149 q 262 189 226 157 q 322 250 297 221 q 365 306 344 276 q 401 363 385 335 z "},"H":{"ha":740,"x_min":-43,"x_max":842,"o":"m 292 419 q 411 439 351 428 q 539 453 471 450 q 561 452 550 453 q 576 454 572 451 q 581 462 578 456 q 588 476 585 468 q 592 493 590 485 q 596 506 594 501 q 647 635 621 576 q 701 760 672 694 q 710 784 706 769 q 722 813 715 799 q 736 836 728 826 q 756 849 744 846 q 791 842 775 853 q 810 813 807 832 q 805 785 811 797 q 792 760 799 772 q 731 617 761 685 q 672 468 700 549 q 662 442 668 456 q 656 417 656 428 q 660 397 656 404 q 663 378 665 389 q 650 357 660 367 q 642 351 647 354 q 633 344 636 349 q 624 313 626 332 q 618 279 622 294 q 611 248 615 264 q 604 214 607 232 q 673 278 638 242 q 740 351 708 314 q 762 376 747 360 q 788 394 776 392 q 826 386 811 400 q 842 356 840 372 q 837 335 842 346 q 824 315 832 325 q 808 297 817 306 q 792 279 799 288 q 731 215 761 244 q 669 154 701 186 q 651 137 661 146 q 629 119 640 128 q 604 106 618 111 q 575 103 590 101 q 536 121 549 106 q 519 160 524 136 q 519 213 515 183 q 528 270 522 242 q 541 324 533 299 q 553 368 549 350 q 422 354 483 364 q 294 333 361 344 q 274 331 285 332 q 260 328 264 331 q 247 301 253 322 q 238 269 242 281 q 217 212 226 238 q 197 153 208 186 q 186 122 192 138 q 179 94 181 106 q 178 74 178 83 q 178 57 179 64 q 172 44 176 50 q 157 33 167 38 q 115 38 135 24 q 92 71 94 51 q 100 131 88 96 q 122 193 113 165 q 131 222 126 207 q 140 251 135 238 q 145 263 142 254 q 153 281 149 271 q 160 298 157 290 q 161 307 163 306 q 151 307 160 308 q 134 303 143 306 q 116 299 125 301 q 104 294 107 296 q 76 289 92 292 q 49 279 60 286 q 32 264 39 274 q 14 251 25 254 q -16 254 -3 247 q -36 274 -29 261 q -42 302 -43 286 q -29 332 -42 318 q 6 356 -17 346 q 56 373 29 365 q 112 386 83 381 q 164 396 140 392 q 181 399 171 399 q 194 401 192 399 q 206 426 200 406 q 217 458 213 447 q 281 631 249 549 q 351 800 314 713 q 370 842 361 822 q 404 863 379 861 q 435 853 419 864 q 451 821 450 842 q 445 798 451 806 q 435 782 439 790 q 415 738 424 761 q 397 692 407 715 q 344 558 369 625 q 292 419 318 490 z "},"I":{"ha":346,"x_min":0,"x_max":511,"o":"m 442 774 q 331 472 385 622 q 226 167 276 322 q 265 169 250 167 q 294 165 279 172 q 319 143 311 158 q 327 112 328 128 q 317 83 326 96 q 288 69 307 69 q 272 74 279 69 q 253 81 265 78 q 203 77 233 83 q 142 68 172 71 q 115 63 128 65 q 89 58 101 61 q 59 53 74 56 q 32 53 44 51 q 11 63 19 56 q 1 88 3 71 q 8 116 0 106 q 27 133 15 126 q 54 142 39 139 q 83 147 69 144 q 99 149 89 149 q 113 151 110 149 q 119 160 117 153 q 124 172 121 168 q 133 184 128 179 q 142 192 139 189 q 154 226 149 203 q 167 265 160 250 q 253 519 208 392 q 347 767 299 647 q 310 761 329 765 q 273 757 290 757 q 243 763 256 757 q 228 789 231 769 q 231 819 224 808 q 244 833 239 831 q 278 847 256 842 q 328 856 301 853 q 384 860 356 858 q 436 863 413 861 q 482 853 460 864 q 508 818 504 843 q 490 776 511 789 q 442 774 469 763 z "},"J":{"ha":600,"x_min":-10,"x_max":682,"o":"m 593 767 q 532 763 563 765 q 468 756 501 760 q 419 746 447 753 q 368 739 392 739 q 334 748 347 739 q 321 781 321 757 q 340 811 321 799 q 390 831 360 824 q 454 844 419 839 q 520 851 489 849 q 573 853 551 853 q 597 854 594 854 q 663 836 644 854 q 682 781 682 818 q 671 710 682 746 q 653 647 660 674 q 605 476 629 558 q 547 324 581 394 q 465 194 513 253 q 350 93 418 136 q 266 52 315 71 q 167 33 217 33 q 91 49 124 33 q 36 91 58 65 q 2 151 14 117 q -10 222 -10 185 q 8 313 -10 269 q 53 394 25 357 q 116 458 81 431 q 188 501 151 486 q 276 528 225 517 q 371 539 326 539 q 431 526 407 539 q 454 481 454 513 q 443 448 454 461 q 411 435 432 435 q 396 438 401 435 q 385 444 390 440 q 375 451 381 449 q 358 454 369 454 q 256 437 307 454 q 166 388 206 419 q 101 313 126 357 q 76 218 76 269 q 101 147 76 174 q 171 119 126 119 q 274 147 229 119 q 351 201 319 174 q 444 313 407 249 q 506 450 481 376 q 552 604 532 524 q 593 767 572 685 z "},"K":{"ha":481,"x_min":-1,"x_max":708,"o":"m 185 457 q 297 533 240 493 q 413 615 354 574 q 522 700 471 658 q 575 747 549 722 q 618 796 601 771 q 638 828 629 814 q 674 838 646 843 q 692 826 683 835 q 703 810 700 817 q 692 763 708 785 q 664 726 676 742 q 571 637 624 678 q 469 560 518 596 q 347 472 407 515 q 224 383 286 429 q 203 370 217 379 q 190 358 190 361 q 197 340 189 353 q 208 321 206 328 q 234 260 224 292 q 264 206 244 229 q 295 179 275 194 q 333 164 315 164 q 368 178 353 163 q 394 206 383 194 q 442 261 422 233 q 486 321 463 289 q 508 348 494 332 q 544 364 522 364 q 575 329 575 364 q 561 290 575 310 q 536 254 547 269 q 508 219 521 235 q 483 188 496 203 q 451 149 469 171 q 412 111 433 128 q 364 86 390 94 q 306 88 338 78 q 245 117 271 97 q 199 164 219 138 q 164 222 179 190 q 136 288 149 254 q 117 224 125 256 q 100 157 108 192 q 93 135 97 146 q 89 113 89 124 q 90 101 88 107 q 90 89 92 94 q 77 56 88 76 q 49 33 67 36 q 18 40 32 31 q 1 64 4 49 q 2 92 -1 78 q 8 122 6 107 q 24 189 15 158 q 42 256 32 219 q 48 269 44 261 q 50 279 51 276 q 40 294 49 286 q 29 314 31 301 q 34 335 29 326 q 47 349 39 343 q 63 361 54 356 q 75 374 71 367 q 84 396 81 382 q 92 424 88 410 q 141 568 115 497 q 193 713 167 639 q 203 738 197 724 q 211 760 210 751 q 208 773 211 767 q 206 785 206 779 q 212 805 206 793 q 227 828 218 817 q 247 847 236 839 q 267 856 257 856 q 293 847 282 856 q 307 828 304 838 q 309 803 311 817 q 302 776 307 789 q 292 750 297 763 q 283 729 286 738 q 235 593 257 658 q 185 457 213 528 z "},"L":{"ha":268,"x_min":-44,"x_max":540,"o":"m 117 96 q 208 101 164 97 q 294 105 253 104 q 377 103 336 106 q 461 90 418 100 q 508 74 483 85 q 536 44 532 63 q 528 9 540 24 q 500 -7 517 -6 q 478 -1 488 -8 q 457 10 468 6 q 358 25 414 25 q 240 24 301 25 q 187 21 214 22 q 133 17 160 19 q 81 10 107 14 q 38 -1 56 7 q 19 -15 26 -8 q 0 -22 13 -22 q -31 -11 -19 -24 q -43 17 -43 1 q -23 58 -44 44 q 22 78 -1 71 q 41 81 29 81 q 56 85 53 82 q 50 99 58 88 q 40 117 42 110 q 49 163 38 136 q 68 213 60 190 q 151 446 108 324 q 238 678 193 568 q 267 752 250 708 q 294 833 285 796 q 305 876 300 857 q 332 899 310 894 q 365 891 351 901 q 381 860 379 881 q 379 839 382 851 q 373 814 376 826 q 365 790 369 801 q 358 769 361 778 q 340 717 351 747 q 321 668 328 686 q 240 456 279 569 q 163 236 200 342 q 146 195 156 215 q 133 156 136 175 q 131 123 131 139 q 117 96 131 107 z "},"M":{"ha":836,"x_min":-90,"x_max":956,"o":"m 424 606 q 234 324 336 463 q 28 51 132 185 q -8 6 11 31 q -49 -19 -26 -19 q -78 -8 -67 -19 q -90 22 -90 3 q -79 48 -90 38 q -57 71 -68 58 q 69 233 7 147 q 189 397 131 318 q 288 542 242 471 q 379 697 335 614 q 408 751 393 724 q 433 806 424 778 q 445 842 439 825 q 476 860 451 860 q 503 850 497 860 q 517 813 510 840 q 526 788 521 794 q 531 764 531 782 q 527 728 531 746 q 521 690 524 710 q 501 585 513 635 q 482 472 489 535 q 478 453 481 465 q 476 433 476 440 q 478 428 476 428 q 483 432 479 428 q 642 636 563 532 q 813 824 722 740 q 841 845 824 835 q 878 856 858 856 q 910 841 901 856 q 919 808 919 826 q 914 771 919 790 q 901 736 908 751 q 817 550 861 640 q 736 360 772 460 q 711 282 725 328 q 697 188 697 236 q 699 182 697 182 q 706 188 701 182 q 713 193 711 193 q 786 276 756 232 q 851 368 817 319 q 881 409 867 389 q 926 429 894 429 q 951 418 946 429 q 956 399 956 407 q 949 381 956 393 q 935 354 943 368 q 919 328 926 340 q 907 311 911 315 q 860 241 886 279 q 806 169 835 203 q 744 114 776 136 q 679 92 713 92 q 635 113 653 92 q 617 182 617 135 q 638 324 617 263 q 682 439 658 385 q 736 563 710 507 q 789 681 763 619 q 790 682 789 682 q 790 683 790 682 q 667 540 728 617 q 547 383 606 463 q 529 357 539 372 q 508 328 519 342 q 483 306 496 315 q 454 297 469 297 q 425 307 436 297 q 408 333 414 317 q 399 369 401 349 q 397 410 397 389 q 406 514 397 467 q 424 606 415 561 z "},"N":{"ha":668,"x_min":0,"x_max":767,"o":"m 499 118 q 547 154 525 132 q 588 203 569 176 q 625 258 607 229 q 661 314 643 286 q 685 351 672 332 q 722 372 699 371 q 756 363 746 375 q 765 332 767 351 q 746 285 763 306 q 704 227 724 260 q 667 169 685 194 q 610 93 639 129 q 539 39 581 57 q 469 35 503 24 q 422 75 436 47 q 411 119 413 94 q 413 171 410 144 q 424 222 417 197 q 436 267 431 247 q 494 435 461 356 q 558 593 526 514 q 591 674 575 633 q 615 761 607 714 q 559 739 583 756 q 513 706 535 722 q 410 610 457 661 q 324 503 364 560 q 247 384 283 446 q 174 257 210 322 q 147 207 161 233 q 119 154 132 181 q 106 126 113 142 q 90 99 99 111 q 71 78 82 86 q 43 71 60 71 q 10 86 19 72 q 1 121 1 100 q 5 165 0 142 q 14 208 10 189 q 55 358 32 288 q 103 495 78 428 q 156 629 129 563 q 208 767 182 696 q 228 813 217 792 q 264 835 240 835 q 291 824 278 835 q 307 799 304 814 q 304 773 310 786 q 293 747 299 760 q 229 583 261 671 q 167 422 197 496 q 291 597 222 507 q 443 758 360 688 q 478 788 460 772 q 519 817 497 804 q 564 840 540 831 q 615 849 588 849 q 676 828 653 850 q 703 769 700 807 q 688 682 706 725 q 656 603 671 639 q 592 448 624 525 q 535 292 561 371 q 508 209 521 251 q 499 118 496 167 z "},"O":{"ha":635,"x_min":0,"x_max":682,"o":"m 463 865 l 474 865 q 566 847 526 865 q 631 796 606 829 q 669 717 657 763 q 682 615 682 671 q 646 421 682 507 q 563 264 610 335 q 494 172 529 215 q 415 92 460 128 q 383 67 403 81 q 341 42 364 54 q 292 22 318 31 q 240 14 267 14 q 142 57 175 14 q 110 167 110 100 q 118 235 110 201 q 126 254 121 243 q 131 272 131 265 q 119 285 131 279 q 97 299 108 290 q 31 364 61 325 q 0 468 0 403 q 31 596 0 539 q 106 697 61 653 q 202 773 151 742 q 293 824 253 804 q 373 851 328 839 q 463 865 418 863 m 340 240 q 326 215 338 222 q 297 208 314 208 q 275 211 286 208 q 253 217 264 214 q 227 228 246 219 q 203 236 208 236 q 198 228 200 236 q 194 210 196 221 q 190 188 192 200 q 189 167 189 175 q 198 113 189 131 q 235 94 207 94 q 313 113 275 94 q 383 162 350 132 q 447 229 417 192 q 499 303 476 267 q 538 373 522 340 q 563 425 554 406 q 594 513 582 467 q 606 610 606 558 q 575 737 606 688 q 467 786 544 786 q 322 753 392 786 q 197 672 251 721 q 111 569 143 624 q 79 469 79 514 q 86 426 79 443 q 106 396 93 408 q 134 373 118 383 q 168 349 150 363 q 188 385 175 364 q 215 424 200 406 q 247 456 231 443 q 278 468 264 468 q 308 458 294 468 q 321 429 321 447 q 310 403 321 408 q 289 388 299 397 q 260 350 272 372 q 236 308 247 328 q 263 295 246 299 q 298 288 281 292 q 328 275 315 283 q 340 249 340 267 l 340 240 z "},"P":{"ha":651,"x_min":0,"x_max":715,"o":"m 468 854 l 490 854 q 587 834 544 854 q 658 782 629 814 q 701 708 686 750 q 715 622 715 665 q 706 548 715 585 q 683 478 697 511 q 651 415 669 444 q 615 364 633 386 q 519 285 574 315 q 388 254 465 254 q 354 256 372 254 q 315 267 336 258 q 296 278 311 268 q 278 286 281 288 q 251 211 264 247 q 231 147 240 179 q 218 94 222 115 q 203 45 211 60 q 172 31 196 31 q 137 44 153 31 q 121 85 121 58 q 132 124 121 100 q 146 165 143 149 q 229 420 186 296 q 317 674 272 544 q 324 696 319 681 q 329 713 329 711 l 328 714 q 318 710 325 714 q 308 704 311 707 q 234 650 272 683 q 164 578 196 617 q 111 500 132 540 q 89 424 90 460 q 91 405 89 413 q 93 390 93 397 q 78 361 93 372 q 49 350 64 350 q 11 372 22 350 q 0 432 0 393 q 54 583 7 510 q 169 715 101 657 q 317 810 238 774 q 468 854 397 847 m 535 407 q 600 506 574 447 q 626 622 626 564 q 590 727 626 689 q 486 765 553 765 q 453 763 464 765 q 438 753 443 760 q 431 738 433 747 q 425 715 429 728 q 369 557 397 633 q 317 400 340 481 q 352 384 342 399 q 365 344 363 369 l 378 344 q 471 360 436 344 q 535 407 506 376 z "},"Q":{"ha":517,"x_min":0,"x_max":567,"o":"m 304 839 q 319 840 311 840 q 333 840 326 840 q 427 822 385 840 q 501 773 469 804 q 549 699 532 742 q 567 606 567 656 q 544 482 567 540 q 500 383 522 424 q 467 333 488 361 q 428 278 447 304 q 394 234 408 253 q 381 211 381 215 q 386 185 381 200 q 400 156 392 171 q 416 128 408 142 q 428 107 424 115 q 444 86 433 99 q 465 68 454 74 q 483 62 474 64 q 501 56 493 60 q 513 47 508 53 q 518 26 518 40 q 506 -6 518 3 q 476 -14 493 -14 q 426 -2 447 -14 q 388 28 404 10 q 358 72 371 47 q 333 121 344 96 q 326 136 332 124 q 321 151 321 149 q 310 147 318 151 q 294 136 303 142 q 278 126 286 131 q 268 119 269 121 q 231 104 249 110 q 189 99 213 99 q 83 140 124 99 q 43 247 43 181 q 49 282 43 265 q 54 317 54 299 q 42 325 53 319 q 29 333 32 331 q 6 371 13 349 q 0 419 0 393 q 8 494 0 456 q 26 564 17 533 q 67 665 43 618 q 124 749 90 713 q 203 809 158 786 q 304 839 247 832 m 433 429 q 469 513 453 468 q 485 603 485 557 q 443 718 485 675 q 331 761 401 761 q 215 726 263 761 q 138 636 168 690 q 95 517 108 582 q 82 393 82 453 q 110 434 94 410 q 146 481 126 458 q 190 519 165 503 q 243 535 214 535 q 266 531 253 535 q 291 519 279 526 q 312 500 303 511 q 322 476 321 489 q 319 460 322 468 q 315 444 315 453 q 328 376 315 413 q 350 307 342 340 q 393 360 372 328 q 433 429 414 393 m 192 411 q 172 383 183 401 q 149 341 160 364 q 129 293 138 318 q 121 246 121 268 q 139 199 121 218 q 186 179 157 179 q 223 186 204 179 q 256 203 242 193 q 280 222 271 213 q 289 239 289 232 q 282 260 289 246 q 272 286 275 275 q 263 323 269 296 q 251 377 257 350 q 239 426 244 404 q 233 447 233 447 q 213 433 226 447 q 192 411 199 418 z "},"R":{"ha":653,"x_min":-1,"x_max":732,"o":"m 496 840 l 507 840 q 571 831 540 840 q 625 803 601 822 q 663 756 649 785 q 678 686 678 726 q 664 610 678 643 q 632 549 650 576 q 578 482 607 510 q 515 433 549 454 q 444 392 482 411 q 361 353 406 374 q 344 346 356 350 q 332 340 332 342 q 337 329 332 338 q 348 312 342 321 q 360 294 354 303 q 367 285 365 286 q 396 244 379 267 q 431 202 413 222 q 467 168 449 182 q 501 153 485 154 q 553 183 526 153 q 606 251 581 214 q 657 318 632 288 q 703 349 682 349 q 728 333 724 349 q 732 310 732 318 q 727 294 732 304 q 715 272 722 283 q 702 250 708 260 q 693 238 696 240 q 664 197 679 218 q 633 157 649 175 q 611 131 624 146 q 582 103 599 117 q 546 81 565 90 q 504 72 526 72 q 456 83 478 72 q 415 109 433 93 q 381 143 396 125 q 353 176 365 161 q 326 211 342 189 q 295 256 311 233 q 267 294 279 278 q 253 308 256 310 q 235 283 246 308 q 215 227 225 258 q 197 165 204 196 q 188 125 189 135 q 188 116 188 121 q 189 106 189 111 q 176 63 189 83 q 138 42 163 42 q 111 51 126 42 q 96 83 96 60 q 106 139 96 107 q 127 203 115 171 q 149 263 139 235 q 158 307 158 292 q 155 323 158 315 q 151 340 151 331 q 163 366 151 363 q 181 381 174 369 q 187 398 185 386 q 192 421 189 410 q 229 539 210 482 q 269 654 249 596 q 277 672 272 661 q 282 690 282 683 q 279 694 282 694 q 264 688 274 694 q 251 679 254 682 q 200 642 226 663 q 150 601 174 622 q 108 557 126 579 q 83 514 90 535 q 69 478 75 490 q 40 467 64 467 q 12 476 25 467 q -1 506 -1 486 q 8 542 -1 524 q 25 574 17 561 q 110 675 60 628 q 223 758 161 722 q 353 815 285 793 q 496 840 422 836 m 425 750 q 408 747 417 747 q 391 744 399 746 q 378 738 383 742 q 374 725 374 733 q 356 654 374 690 q 324 574 339 618 q 310 536 318 557 q 296 494 303 515 q 284 456 289 474 q 279 431 279 439 q 288 420 282 428 q 297 413 294 413 q 308 417 300 413 q 322 424 315 421 q 394 456 360 440 q 458 490 428 471 q 515 531 489 508 q 563 588 540 554 q 586 631 574 606 q 599 686 599 657 q 569 744 599 728 q 500 760 540 760 q 463 758 476 760 q 425 750 449 756 z "},"S":{"ha":475,"x_min":0,"x_max":613,"o":"m 385 826 l 401 826 q 472 819 435 826 q 540 794 508 811 q 592 753 571 778 q 613 696 613 729 q 600 651 613 671 q 567 631 588 631 q 537 642 547 631 q 526 669 526 653 q 529 683 526 676 q 532 696 532 690 q 515 719 529 708 q 483 735 501 729 q 444 745 464 742 q 407 749 424 749 q 297 728 350 749 q 203 678 244 708 q 136 613 161 649 q 111 549 111 578 q 133 507 111 526 q 188 467 156 488 q 260 425 221 447 q 332 374 299 403 q 388 306 365 344 q 411 218 410 268 q 392 155 411 186 q 341 99 374 124 q 266 58 308 74 q 176 42 224 42 q 116 49 147 42 q 59 71 85 56 q 17 111 33 86 q 0 174 0 136 q 10 221 0 196 q 36 267 21 246 q 67 303 51 289 q 94 317 83 317 q 124 305 114 317 q 135 276 135 293 q 126 248 135 258 q 108 228 118 238 q 89 208 97 219 q 81 174 81 196 q 110 136 81 150 q 172 122 139 122 q 215 129 189 122 q 267 148 242 136 q 312 177 293 160 q 331 215 331 194 q 308 284 331 254 q 253 338 286 314 q 181 384 219 363 q 110 429 143 406 q 54 481 76 453 q 32 546 32 508 q 65 650 32 601 q 148 736 97 699 q 261 797 199 774 q 385 826 324 821 z "},"T":{"ha":478,"x_min":-85,"x_max":799,"o":"m 260 124 q 367 215 319 164 q 463 324 414 267 q 476 339 468 329 q 496 358 485 349 q 519 374 507 368 q 542 381 531 381 q 581 346 581 381 q 574 322 581 335 q 559 296 568 308 q 540 273 550 283 q 524 254 531 263 q 458 180 492 219 q 389 107 424 140 q 320 52 354 74 q 254 31 286 31 q 213 43 229 31 q 185 76 196 56 q 171 122 175 96 q 167 174 167 147 q 188 327 167 256 q 231 461 210 399 q 280 602 254 536 q 335 738 306 668 q 158 733 247 735 q -12 726 69 732 q -26 723 -18 725 q -43 721 -33 721 q -72 735 -60 721 q -85 769 -85 750 q -76 795 -85 786 q -51 808 -67 804 q -16 813 -36 813 q 26 815 4 814 q 144 822 85 818 q 261 826 203 826 q 298 825 278 826 q 338 824 318 824 q 368 828 357 824 q 387 839 379 833 q 402 849 394 844 q 422 854 410 854 q 443 849 438 854 q 453 837 449 843 q 465 825 458 831 q 490 819 472 819 q 513 820 501 819 q 536 821 525 821 q 619 819 582 821 q 700 818 656 818 l 736 818 q 781 811 763 818 q 799 774 799 804 q 769 735 799 744 q 703 726 740 726 q 637 728 667 726 q 578 731 607 729 q 519 735 550 733 q 450 738 489 738 q 419 715 426 738 q 401 665 411 692 q 358 558 381 614 q 319 450 336 501 q 277 313 296 381 q 258 163 258 246 q 258 144 258 153 q 260 124 258 135 z "},"U":{"ha":646,"x_min":0,"x_max":739,"o":"m 408 349 q 354 268 381 307 q 300 190 328 229 q 261 138 282 165 q 215 88 240 111 q 162 49 190 64 q 100 33 133 33 q 52 46 71 33 q 22 80 33 58 q 5 128 10 101 q 0 185 0 156 q 20 344 0 264 q 69 499 40 424 q 133 646 99 575 q 197 778 168 717 q 222 821 208 797 q 258 844 235 844 q 290 832 276 844 q 303 803 303 819 q 289 763 303 779 q 268 731 275 746 q 211 613 236 672 q 161 490 186 553 q 111 347 135 421 q 88 171 88 272 q 90 132 88 147 q 103 117 93 117 q 128 129 114 117 q 149 149 142 142 q 271 295 218 213 q 376 460 324 378 q 468 601 422 533 q 560 743 514 668 q 574 768 567 754 q 590 794 582 782 q 610 814 599 806 q 636 822 621 822 q 665 809 651 822 q 678 781 678 796 q 667 740 678 761 q 647 703 656 719 q 592 592 619 649 q 541 478 565 536 q 497 356 517 419 q 465 224 476 293 q 462 196 464 215 q 460 158 460 176 q 461 135 460 144 q 468 126 463 126 q 488 133 475 126 q 507 147 500 140 q 566 207 539 169 q 617 280 593 244 q 663 342 642 315 q 706 368 685 368 q 732 353 725 368 q 739 322 739 338 q 730 303 739 319 q 709 265 721 286 q 685 226 697 244 q 669 200 674 207 q 629 145 651 174 q 581 94 607 117 q 524 56 554 71 q 460 40 493 40 q 393 78 411 40 q 375 165 375 115 q 386 264 375 214 q 408 349 397 314 z "},"V":{"ha":382,"x_min":-4,"x_max":606,"o":"m 93 150 q 111 167 104 157 q 126 189 118 178 q 228 342 182 263 q 324 506 274 422 q 405 643 364 572 q 488 785 446 714 q 502 810 494 796 q 518 836 510 824 q 538 858 526 849 q 561 867 549 867 q 591 854 579 867 q 604 826 603 842 q 595 799 606 813 q 578 771 585 785 q 473 594 524 679 q 367 417 422 508 q 278 265 321 339 q 179 119 235 190 q 160 94 171 108 q 136 67 150 79 q 106 48 122 56 q 71 44 90 40 q 42 63 54 47 q 22 100 29 78 q 9 148 14 122 q 3 199 4 174 q 10 406 -4 307 q 40 597 25 506 q 47 644 43 621 q 57 692 51 668 q 67 740 61 715 q 72 785 72 764 q 72 813 74 799 q 75 838 69 826 q 103 859 83 854 q 139 853 124 864 q 157 808 157 840 q 150 728 160 769 q 133 647 140 688 q 113 530 124 592 q 94 404 101 468 q 85 276 86 340 q 93 150 83 211 z "},"W":{"ha":672,"x_min":0,"x_max":804,"o":"m 328 365 q 231 242 281 306 q 131 115 182 179 q 115 94 124 107 q 95 69 106 81 q 72 50 85 58 q 44 42 60 42 q 9 58 18 42 q 0 97 0 74 q 7 154 0 125 q 21 203 14 183 q 124 497 68 358 q 242 779 179 636 q 252 806 247 792 q 263 831 257 819 q 278 850 269 843 q 300 857 288 857 q 329 844 319 857 q 339 814 339 832 q 331 781 339 794 q 315 749 322 767 q 203 486 260 622 q 107 214 146 350 q 205 338 157 272 q 306 468 253 403 q 321 488 313 476 q 339 508 329 499 q 360 525 349 518 q 386 532 372 532 q 419 515 410 532 q 428 475 428 499 q 418 406 428 443 q 406 346 408 368 q 393 272 399 310 q 388 189 388 233 q 390 179 388 179 q 415 192 401 179 q 444 222 429 204 q 472 260 458 240 q 499 297 486 281 q 619 493 568 392 q 707 722 671 594 q 714 747 710 733 q 718 768 718 760 q 712 788 717 779 q 707 807 707 796 q 723 844 707 831 q 758 857 739 857 q 790 844 776 857 q 804 803 804 831 q 797 747 804 776 q 782 693 789 717 q 660 392 735 531 q 483 149 585 254 q 438 110 464 129 q 389 92 413 92 q 349 101 364 92 q 324 126 333 111 q 310 159 314 140 q 307 196 307 178 q 316 283 307 238 q 328 365 325 328 z "},"X":{"ha":599,"x_min":-46,"x_max":817,"o":"m 754 874 l 761 874 q 800 858 783 874 q 817 821 817 843 q 807 792 817 807 q 774 776 797 776 q 760 781 765 776 q 753 785 756 785 q 740 778 749 785 q 724 763 732 771 q 708 748 715 756 q 697 738 700 740 q 548 582 619 660 q 400 425 476 504 q 369 394 388 411 q 351 369 351 376 q 358 343 351 358 q 368 318 365 328 q 381 278 374 301 q 398 232 389 254 q 418 194 407 210 q 442 178 429 178 q 476 194 460 178 q 503 222 493 211 q 551 274 529 250 q 597 328 574 297 q 617 356 607 342 q 646 371 626 371 q 676 359 664 371 q 688 332 688 347 q 675 295 688 315 q 646 256 663 275 q 613 220 629 236 q 588 196 596 204 q 560 167 575 183 q 528 135 546 150 q 489 109 510 119 q 443 99 468 99 q 385 116 408 99 q 344 160 361 133 q 317 221 328 188 q 296 285 306 254 q 291 300 293 292 q 286 308 289 308 q 269 296 281 308 q 253 278 257 283 q 165 195 207 233 q 76 115 124 157 q 40 81 58 100 q -7 63 21 61 q -35 77 -25 63 q -46 107 -46 92 q -25 142 -46 129 q -17 144 -22 144 q -7 147 -11 144 q 11 160 1 150 q 29 176 21 169 q 128 269 78 222 q 229 365 179 317 q 249 385 239 375 q 258 400 258 394 q 253 423 258 408 q 246 447 249 438 q 211 587 226 518 q 175 728 196 656 q 167 751 171 740 q 164 771 164 761 q 178 799 164 789 q 207 808 192 808 q 230 799 221 808 q 245 776 239 790 q 255 744 251 761 q 263 711 258 728 q 278 644 268 686 q 297 563 288 603 q 314 494 306 524 q 325 465 322 465 q 338 474 329 465 q 481 624 413 547 q 624 775 550 700 q 685 835 651 804 q 754 874 718 867 z "},"Y":{"ha":574,"x_min":0,"x_max":667,"o":"m 531 557 q 439 438 483 499 q 331 329 394 378 q 302 309 318 319 q 267 292 286 299 q 229 283 249 285 q 189 292 210 282 q 143 339 161 306 q 122 414 125 372 q 126 490 119 454 q 140 557 132 525 q 231 788 171 676 q 244 810 236 796 q 263 840 253 825 q 284 865 272 854 q 307 878 296 876 q 338 870 324 881 q 354 843 353 860 q 352 819 356 829 q 342 803 349 810 q 329 790 336 796 q 318 779 322 785 q 293 738 304 761 q 271 688 282 714 q 230 589 247 639 q 206 476 213 539 q 202 443 203 461 q 203 408 201 425 q 211 379 206 392 q 226 365 217 367 q 263 377 242 361 q 296 401 285 393 q 372 482 336 438 q 440 571 408 526 q 483 631 460 599 q 525 697 506 664 q 542 729 532 710 q 563 766 551 749 q 590 797 575 783 q 621 810 604 810 q 658 794 649 811 q 666 751 667 776 q 658 700 665 726 q 644 656 650 674 q 545 376 600 506 q 400 146 490 247 q 365 109 385 128 q 321 75 344 90 q 263 39 293 56 q 185 28 232 22 q 133 39 160 29 q 84 63 107 49 q 42 94 61 76 q 14 131 24 111 q 4 153 8 140 q 0 179 0 167 q 16 227 1 203 q 58 253 31 251 q 87 242 75 253 q 99 214 99 232 q 91 190 100 199 q 82 175 82 182 q 88 163 82 169 q 101 149 93 156 q 117 138 108 143 q 131 129 125 132 q 182 110 156 115 q 236 117 208 104 q 339 195 294 143 q 417 303 383 247 q 480 428 453 363 q 531 557 507 493 z "},"Z":{"ha":636,"x_min":-19,"x_max":790,"o":"m 663 750 q 517 750 589 753 q 367 746 444 747 q 331 745 349 747 q 294 743 313 743 q 258 755 274 746 q 246 789 243 764 q 260 817 247 808 q 291 829 272 826 q 332 831 310 832 q 374 831 354 831 q 553 835 465 831 q 703 836 640 839 q 763 823 736 833 q 788 783 790 813 q 769 740 788 761 q 736 704 751 719 q 640 576 686 642 q 546 446 593 511 q 450 317 499 381 q 346 194 401 254 q 341 191 344 193 q 338 188 338 189 q 347 181 338 185 q 369 174 357 178 q 392 169 381 171 q 410 167 404 167 q 491 178 457 164 q 551 215 525 192 q 595 265 576 238 q 630 315 614 292 q 661 354 646 339 q 694 368 676 369 q 732 329 732 368 q 717 288 731 313 q 685 238 704 264 q 643 189 665 213 q 603 151 621 165 q 509 101 563 122 q 397 83 456 81 q 322 101 360 83 q 312 106 319 103 q 296 114 304 110 q 280 122 288 118 q 268 126 272 126 q 240 115 260 128 q 194 86 221 101 q 135 58 168 71 q 65 49 103 46 q 4 75 28 51 q -17 139 -19 99 q 0 191 -15 168 q 40 229 15 214 q 94 253 64 244 q 156 260 124 261 q 215 246 190 257 q 233 237 219 243 q 251 229 246 231 q 266 235 257 229 q 283 251 275 242 q 299 270 292 261 q 313 285 307 279 q 392 382 354 329 q 465 482 429 435 q 561 618 514 553 q 663 750 608 683 m 68 135 q 127 145 103 133 q 175 171 151 157 q 161 174 168 174 q 147 175 154 175 q 97 167 119 176 q 68 135 75 157 z "},"a":{"ha":461,"x_min":0,"x_max":571,"o":"m 329 208 q 403 274 368 235 q 474 357 439 314 q 499 386 485 372 q 531 400 513 400 q 560 388 549 400 q 571 361 571 376 q 559 331 571 349 q 532 294 547 313 q 500 260 517 276 q 474 232 483 243 q 439 193 457 213 q 402 158 421 174 q 363 133 383 143 q 319 122 343 122 q 267 148 286 122 q 249 211 249 174 q 257 260 249 235 q 223 227 242 247 q 181 188 204 207 q 133 154 158 168 q 82 140 108 140 q 23 169 46 140 q 0 242 0 197 q 24 358 0 300 q 84 460 47 415 q 167 534 121 506 q 257 563 213 563 q 308 552 285 563 q 347 521 332 542 q 353 510 349 518 q 358 504 357 503 q 374 514 367 504 q 390 536 381 524 q 409 558 399 549 q 433 568 419 568 q 460 558 449 568 q 471 528 471 547 q 455 488 471 511 q 428 450 439 465 q 367 340 394 399 q 329 208 340 281 m 129 386 q 97 319 114 360 q 79 236 79 278 q 85 224 79 224 q 121 241 99 224 q 167 282 143 258 q 213 331 190 306 q 250 371 235 356 q 265 385 256 376 q 281 403 274 394 q 292 421 288 413 q 297 436 297 429 q 287 470 297 456 q 267 485 276 485 q 221 476 242 485 q 183 452 200 467 q 153 420 167 438 q 129 386 139 403 z "},"b":{"ha":468,"x_min":-24,"x_max":604,"o":"m 138 435 q 183 482 158 454 q 235 535 207 510 q 293 577 263 560 q 358 594 324 594 q 413 565 396 594 q 429 496 429 536 q 417 404 429 451 q 393 326 404 357 q 392 325 393 325 q 392 324 392 325 q 435 365 411 342 q 484 408 460 388 q 531 443 508 429 q 568 457 553 457 q 593 449 582 457 q 604 426 604 440 q 597 402 604 414 q 577 379 589 390 q 553 359 565 368 q 532 342 540 350 q 435 260 488 301 q 339 185 383 218 q 278 142 308 161 q 204 122 249 122 q 147 135 169 122 q 124 178 124 149 q 139 207 124 200 q 163 214 154 214 q 187 209 176 214 q 210 204 197 204 q 255 228 235 206 q 291 281 275 250 q 318 349 307 313 q 337 418 329 386 q 348 472 344 450 q 351 494 351 493 q 350 507 351 501 q 346 513 349 513 q 307 494 331 513 q 258 449 283 475 q 209 394 233 422 q 171 347 185 365 q 117 269 140 308 q 71 189 93 231 q 53 153 60 169 q 19 138 46 138 q -12 150 0 138 q -24 181 -24 163 q -15 230 -24 203 q -1 276 -7 257 q 45 417 19 351 q 99 553 71 483 q 149 685 122 614 q 203 824 176 757 q 211 848 207 835 q 222 872 215 861 q 237 891 228 883 q 258 899 246 899 q 287 888 275 899 q 299 861 299 876 q 292 833 299 846 q 282 808 286 821 q 209 621 247 715 q 138 435 171 526 z "},"c":{"ha":435,"x_min":19,"x_max":549,"o":"m 235 567 q 245 567 240 567 q 254 568 250 568 q 349 539 311 568 q 388 463 388 510 q 377 425 388 440 q 344 410 367 410 q 317 421 325 410 q 310 443 310 432 l 310 456 q 296 481 310 475 q 258 488 282 488 q 205 471 233 488 q 153 426 176 454 q 114 360 129 397 q 99 279 99 322 q 117 220 99 244 q 176 196 136 196 q 234 216 199 196 q 310 266 269 236 q 391 331 350 296 q 464 394 432 365 q 490 414 475 404 q 517 424 504 424 q 549 386 549 424 q 540 363 549 375 q 519 339 531 350 q 495 318 507 328 q 476 303 483 308 q 394 234 435 268 q 317 174 354 200 q 244 131 279 147 q 175 115 208 115 q 106 131 135 115 q 57 169 76 146 q 28 220 38 192 q 19 276 19 249 q 38 382 19 332 q 86 472 56 432 q 156 536 117 511 q 235 567 194 561 z "},"d":{"ha":447,"x_min":4,"x_max":576,"o":"m 368 231 q 418 292 394 256 q 464 363 442 329 q 507 420 486 396 q 549 444 528 444 q 576 408 576 444 q 565 374 576 392 q 542 340 553 356 q 503 278 522 313 q 461 213 483 243 q 414 161 439 182 q 360 140 389 140 q 322 151 336 140 q 300 178 308 161 q 288 219 292 196 q 283 265 285 242 q 285 278 283 268 q 285 288 286 289 q 267 275 282 288 q 234 246 253 263 q 194 212 215 229 q 157 185 174 194 q 125 163 140 174 q 86 151 110 151 q 24 185 43 151 q 4 269 4 218 q 28 373 6 319 q 87 470 51 426 q 165 542 122 514 q 251 569 208 569 q 299 556 279 569 q 338 525 318 543 q 372 631 351 569 q 415 749 392 693 q 462 845 438 806 q 508 885 486 885 q 536 872 524 885 q 549 840 549 860 q 540 820 546 826 q 528 803 535 814 q 499 742 513 775 q 474 674 485 708 q 438 582 457 631 q 403 483 419 533 q 377 382 388 432 q 365 285 367 332 q 368 231 361 260 m 140 407 q 104 344 124 382 q 82 269 85 306 q 83 246 82 258 q 89 233 85 233 q 99 240 92 233 q 114 250 107 246 q 177 296 153 274 q 229 347 201 318 q 255 370 240 357 q 272 392 269 383 q 271 399 272 394 q 269 408 269 403 q 274 424 271 415 q 279 440 276 433 q 270 474 279 461 q 244 488 261 488 q 216 479 231 488 q 188 459 201 471 q 161 433 174 447 q 140 407 149 419 z "},"e":{"ha":394,"x_min":8,"x_max":500,"o":"m 97 321 q 89 267 89 292 q 105 208 89 231 q 153 185 121 185 q 242 218 197 185 q 329 292 288 251 q 407 365 371 332 q 468 399 443 399 q 491 391 482 399 q 500 364 500 383 q 486 330 500 349 q 452 292 472 311 q 409 253 432 272 q 369 221 386 235 q 321 181 346 201 q 269 143 296 160 q 213 115 242 126 q 153 104 183 104 q 92 117 119 104 q 47 153 65 131 q 18 207 28 176 q 8 271 8 238 q 26 369 8 324 q 68 450 44 414 q 102 494 82 471 q 147 538 122 518 q 201 571 172 558 q 258 583 229 583 q 335 554 306 583 q 364 483 364 525 q 347 420 364 451 q 302 365 331 389 q 237 326 274 340 q 160 311 200 311 q 97 321 126 311 m 169 450 q 160 440 167 447 q 147 424 154 433 q 135 407 140 415 q 129 394 129 399 q 136 390 129 392 q 153 389 143 389 q 201 397 181 389 q 246 425 222 406 q 268 448 253 431 q 283 483 283 465 q 261 503 283 503 q 210 486 232 503 q 169 450 189 469 z "},"f":{"ha":243,"x_min":-126,"x_max":340,"o":"m 60 215 q 118 224 93 215 q 162 247 143 232 q 196 279 181 261 q 225 315 211 297 q 240 333 232 324 q 256 354 249 343 q 275 378 264 368 q 299 390 286 388 q 329 385 319 394 q 340 357 339 376 q 326 319 340 339 q 304 288 313 299 q 269 242 288 265 q 228 200 250 219 q 182 165 207 181 q 126 144 157 150 q 117 144 125 144 q 107 142 108 143 q 107 135 106 140 q 111 122 108 129 q 117 109 114 115 q 119 101 119 103 q 124 64 122 86 q 124 18 126 42 q 114 -55 121 -18 q 94 -126 107 -92 q 66 -190 82 -160 q 31 -242 50 -219 q 13 -262 24 -250 q -13 -285 1 -275 q -45 -300 -28 -296 q -82 -297 -62 -304 q -115 -265 -106 -287 q -126 -212 -125 -242 q -121 -152 -126 -183 q -110 -93 -115 -121 q -29 194 -78 57 q 65 467 19 332 q 85 521 75 494 q 104 575 94 547 q 126 627 115 600 q 143 682 136 654 q 153 723 149 706 q 185 742 158 740 q 211 732 200 742 q 225 711 222 722 q 224 678 229 697 q 213 643 218 658 q 136 427 178 535 q 60 215 94 319 m -47 -207 q -12 -165 -28 -190 q 16 -107 4 -139 q 35 -40 28 -75 q 44 29 42 -6 q 42 76 46 53 q 29 113 38 99 q 26 114 29 114 q -16 -40 4 38 q -47 -207 -36 -118 z "},"g":{"ha":396,"x_min":-308,"x_max":911,"o":"m 260 53 q 469 69 367 61 q 681 85 572 78 q 751 92 715 88 q 824 93 788 96 q 851 89 836 92 q 878 80 865 86 q 899 64 890 74 q 908 42 907 54 q 902 13 911 26 q 878 -3 893 0 q 846 3 857 -6 q 817 14 835 13 q 743 11 781 15 q 668 4 706 7 q 486 -10 579 -3 q 301 -25 393 -17 q 260 -27 283 -26 q 229 -31 236 -28 q 218 -51 224 -35 q 210 -74 213 -67 q 154 -174 185 -128 q 76 -251 124 -219 q 37 -274 58 -262 q -7 -293 15 -286 q -29 -297 -14 -296 q -54 -294 -44 -297 q -134 -228 -112 -281 q -140 -103 -156 -175 q -134 -85 -139 -99 q -131 -68 -129 -71 q -146 -67 -132 -65 q -167 -71 -160 -69 q -186 -74 -176 -72 q -203 -76 -196 -76 q -240 -82 -221 -79 q -274 -83 -258 -85 q -299 -72 -289 -81 q -308 -43 -308 -62 q -285 -8 -308 -14 q -229 1 -261 -3 q -61 21 -142 11 q 114 39 19 31 q 145 40 126 40 q 171 44 164 40 q 181 65 174 47 q 190 92 188 82 q 207 137 197 110 q 226 192 217 164 q 245 245 236 219 q 261 286 254 271 q 230 247 247 272 q 190 199 213 222 q 138 163 167 176 q 76 157 110 149 q 36 185 49 164 q 20 235 24 207 q 21 296 17 264 q 32 357 25 328 q 56 429 40 393 q 94 494 71 465 q 151 542 118 524 q 226 560 183 560 q 268 554 250 560 q 301 539 286 549 q 313 532 304 538 l 321 526 q 328 538 324 528 q 338 550 333 547 q 355 561 344 557 q 376 565 365 565 q 397 558 388 564 q 410 539 406 551 q 410 508 415 525 q 401 478 406 492 q 372 373 389 429 q 335 260 354 317 q 296 149 315 203 q 260 53 276 96 m 103 306 q 100 288 101 299 q 98 265 99 276 q 98 245 97 254 q 103 235 99 236 q 108 238 101 235 q 118 243 115 240 q 139 262 128 250 q 156 281 150 274 q 210 352 188 317 q 260 426 233 388 q 269 444 263 432 q 274 464 276 457 q 263 472 271 469 q 244 476 254 475 q 224 478 233 478 q 210 478 214 478 q 168 456 186 474 q 137 415 150 439 q 115 361 124 390 q 103 306 107 332 m 44 -47 q 26 -48 38 -47 q 3 -49 15 -49 q -19 -52 -8 -50 q -33 -57 -29 -54 q -45 -74 -39 -60 q -56 -99 -51 -87 q -68 -149 -64 -119 q -62 -197 -72 -178 q -49 -213 -57 -210 q -31 -215 -40 -217 q -10 -207 -21 -212 q 8 -197 0 -201 q 73 -146 49 -176 q 121 -75 97 -115 q 131 -55 124 -68 q 135 -39 139 -42 q 131 -39 132 -37 q 126 -40 129 -40 q 86 -42 107 -39 q 44 -47 65 -44 z "},"h":{"ha":383,"x_min":-7,"x_max":515,"o":"m 163 521 q 196 557 178 536 q 235 589 214 578 q 263 599 246 594 q 299 601 279 604 q 340 568 326 596 q 351 503 354 540 q 338 437 349 472 q 315 368 326 401 q 306 337 311 353 q 296 301 301 321 q 292 285 294 296 q 286 262 289 274 q 282 241 283 250 q 282 229 281 232 q 291 233 285 226 q 296 238 297 239 q 358 313 333 271 q 415 392 383 354 q 440 422 426 404 q 472 440 454 440 q 503 431 492 442 q 507 396 515 419 q 497 378 504 390 q 479 350 489 365 q 460 321 469 335 q 446 300 451 307 q 417 258 433 281 q 383 213 401 235 q 346 173 365 190 q 306 147 326 156 q 265 142 283 139 q 233 156 247 144 q 212 183 219 167 q 203 218 204 200 q 211 297 200 254 q 233 372 222 339 q 250 422 240 393 q 267 478 260 450 q 271 498 268 483 q 272 515 274 513 q 265 513 271 517 q 254 502 260 508 q 243 489 249 496 q 236 481 238 482 q 167 367 199 433 q 106 243 135 301 q 95 219 100 232 q 83 192 90 207 q 67 154 75 172 q 33 136 58 136 q 3 149 13 136 q -6 181 -6 163 q -3 222 -7 200 q 4 261 0 243 q 81 533 36 406 q 174 786 126 660 q 183 806 178 796 q 190 828 188 817 q 197 851 194 840 q 203 869 199 861 q 214 883 207 878 q 235 889 221 889 q 269 874 258 889 q 276 833 279 858 q 270 815 275 824 q 261 794 265 806 q 211 656 239 728 q 163 521 183 583 z "},"i":{"ha":192,"x_min":0,"x_max":304,"o":"m 203 754 q 208 755 206 754 q 214 756 211 756 q 246 740 236 756 q 256 704 256 725 q 240 653 256 678 q 199 629 225 629 q 162 647 175 629 q 149 692 149 664 q 162 733 149 719 q 203 754 175 747 m 126 567 q 131 567 129 567 q 135 568 132 568 q 163 558 150 568 q 176 528 176 547 q 166 488 176 508 q 150 456 156 468 q 120 379 135 417 q 93 299 106 342 q 84 264 90 288 q 78 224 78 240 q 89 207 78 207 q 137 238 114 207 q 182 306 160 269 q 226 374 204 343 q 269 406 247 406 q 304 372 304 406 q 292 331 304 357 q 260 276 279 306 q 219 219 242 247 q 179 174 197 192 q 140 141 160 154 q 88 128 119 128 q 24 154 47 128 q 0 225 0 181 q 8 288 0 254 q 27 355 15 321 q 52 422 39 389 q 76 482 65 454 q 85 507 81 493 q 94 533 89 521 q 108 555 100 546 q 126 567 115 564 z "},"j":{"ha":306,"x_min":-414,"x_max":731,"o":"m 311 785 q 315 785 314 785 q 319 786 317 786 q 354 767 342 786 q 367 724 367 747 q 347 677 367 696 q 300 658 326 658 q 260 674 276 658 q 243 717 243 690 q 251 744 243 736 q 285 768 258 753 q 298 778 296 775 q 311 785 300 782 m 169 22 q 397 56 278 36 q 638 88 515 76 q 653 89 644 89 q 668 89 661 89 q 712 81 693 89 q 731 46 731 72 q 718 15 731 26 q 694 4 706 4 q 676 7 683 4 q 657 10 668 10 q 626 8 642 10 q 596 4 611 7 q 398 -22 496 -8 q 196 -53 300 -36 q 160 -58 182 -56 q 132 -64 139 -61 q 123 -78 126 -67 q 115 -97 119 -90 q 77 -167 99 -131 q 28 -234 56 -204 q -33 -284 0 -264 q -104 -304 -65 -304 q -158 -292 -132 -304 q -202 -259 -183 -281 q -232 -208 -221 -237 q -243 -146 -243 -179 l -243 -133 q -294 -147 -269 -140 q -344 -162 -319 -153 q -375 -172 -361 -172 q -402 -162 -390 -172 q -414 -132 -414 -151 q -392 -99 -414 -114 q -333 -71 -369 -83 q -249 -49 -296 -58 q -151 -30 -201 -39 q -52 -13 -101 -21 q 39 1 -3 -6 q 58 4 49 4 q 72 7 68 4 q 78 14 75 8 q 85 27 82 19 q 92 42 89 35 q 96 54 94 50 q 163 240 131 138 q 214 443 194 343 q 217 457 215 447 q 218 471 218 467 q 217 474 218 474 q 190 458 208 474 q 153 420 172 442 q 117 375 133 399 q 93 336 100 351 q 50 294 78 299 q 19 301 31 292 q 8 326 8 311 q 32 393 8 353 q 90 471 56 433 q 165 535 125 508 q 235 563 204 563 q 281 544 263 563 q 300 490 300 526 q 294 431 300 460 q 281 372 288 401 q 259 284 272 331 q 231 191 246 238 q 199 101 215 144 q 169 22 183 57 m -18 -89 q -42 -93 -31 -92 q -64 -96 -54 -94 q -99 -101 -82 -100 q -131 -106 -117 -103 q -155 -119 -146 -110 q -164 -149 -164 -128 q -147 -201 -164 -178 q -103 -225 -129 -225 q -67 -212 -85 -225 q -33 -182 -49 -199 q -6 -148 -18 -165 q 13 -122 6 -131 q 24 -102 17 -114 q 32 -83 32 -90 q 31 -81 32 -81 q 28 -82 28 -82 l 19 -82 q 0 -84 10 -82 q -18 -89 -10 -86 z "},"k":{"ha":383,"x_min":-19,"x_max":481,"o":"m 143 299 q 116 252 129 275 q 90 201 103 229 q 79 174 85 189 q 65 144 74 158 q 47 119 57 129 q 24 110 38 110 q -6 121 7 110 q -19 151 -19 132 q -12 193 -19 171 q -1 235 -6 215 q 36 378 14 310 q 83 512 58 446 q 133 643 107 578 q 182 775 158 708 q 191 801 186 788 q 202 828 196 815 q 217 848 208 840 q 240 856 226 856 q 268 844 256 856 q 281 818 281 833 q 274 784 281 806 q 256 737 267 763 q 235 685 246 711 q 217 642 225 660 q 181 551 197 594 q 150 464 165 508 q 149 463 150 463 q 149 460 149 463 q 190 519 167 483 q 242 588 214 554 q 300 644 269 621 q 364 668 331 668 q 406 652 388 668 q 425 606 425 636 q 408 544 425 576 q 366 480 392 511 q 309 420 340 449 q 247 371 278 392 q 238 367 243 371 q 225 358 232 363 q 211 346 218 353 q 216 328 211 340 q 224 308 221 315 q 231 272 228 292 q 240 235 235 253 q 252 205 244 217 q 271 193 260 193 q 313 226 290 193 q 358 300 335 260 q 403 374 381 340 q 444 407 425 407 q 481 369 481 407 q 472 335 481 354 q 451 298 463 317 q 426 262 439 279 q 406 233 414 244 q 379 192 392 214 q 351 153 367 171 q 315 124 336 135 q 263 113 293 113 q 213 132 233 114 q 178 177 192 150 q 157 236 165 204 q 143 299 149 268 z "},"l":{"ha":215,"x_min":13,"x_max":326,"o":"m 281 883 l 285 883 q 310 874 297 883 q 324 846 324 864 q 311 807 324 829 q 292 769 299 785 q 199 585 243 678 q 124 382 156 492 q 103 308 113 347 q 94 214 93 269 q 99 192 94 192 q 131 209 114 192 q 164 252 147 226 q 197 308 181 278 q 229 365 213 339 q 261 408 246 390 q 292 425 276 425 q 326 389 326 425 q 317 359 326 381 q 292 312 307 338 q 262 261 278 286 q 235 219 246 236 q 172 145 206 178 q 97 113 139 113 q 31 144 49 113 q 13 225 13 176 q 21 317 13 272 q 42 401 29 361 q 69 477 54 442 q 96 543 83 513 q 163 692 128 622 q 236 836 199 761 q 251 869 246 856 q 281 883 257 882 z "},"m":{"ha":642,"x_min":-26,"x_max":760,"o":"m 526 206 q 590 258 564 224 q 638 328 617 293 q 680 389 660 363 q 724 415 700 415 q 749 407 739 415 q 760 383 760 399 q 749 349 760 372 q 719 297 738 325 q 675 237 700 268 q 624 181 650 206 q 571 140 597 156 q 522 124 544 124 q 463 156 482 124 q 444 233 444 188 q 453 306 444 271 q 472 373 461 340 q 495 438 483 406 q 514 503 507 469 q 455 458 482 485 q 403 398 428 431 q 358 331 379 365 q 315 261 336 296 q 303 238 310 251 q 286 213 296 225 q 265 192 276 200 q 239 183 253 183 q 206 197 215 183 q 197 229 197 211 q 208 286 197 256 q 226 335 219 317 q 249 390 238 365 q 269 439 261 415 q 178 326 219 382 q 97 200 136 269 q 63 142 79 168 q 18 115 46 117 q -14 132 -1 115 q -26 175 -26 149 q -17 235 -26 207 q 1 290 -7 263 q 34 390 17 339 q 71 490 51 442 q 82 520 76 504 q 95 551 88 536 q 114 575 103 565 q 140 585 125 585 q 167 573 156 585 q 179 543 179 561 q 174 524 179 532 q 164 507 168 515 q 137 441 149 478 q 114 376 125 404 q 155 426 132 393 q 204 490 178 458 q 260 546 231 522 q 319 569 289 569 q 358 553 343 569 q 374 511 374 538 q 369 486 374 499 q 401 517 383 499 q 439 553 418 535 q 484 583 460 571 q 538 596 508 596 q 584 574 569 596 q 599 514 599 553 q 584 447 596 481 q 559 377 572 413 q 535 306 546 342 q 525 232 525 269 q 525 219 525 225 q 526 206 525 213 z "},"n":{"ha":443,"x_min":-10,"x_max":563,"o":"m 299 451 q 280 438 288 447 q 265 418 272 428 q 192 319 225 369 q 124 210 158 268 q 94 163 108 183 q 57 138 81 143 q 8 154 25 131 q -7 215 -10 178 q 9 295 -4 256 q 35 374 22 335 l 60 449 q 76 485 67 468 q 88 519 85 503 q 88 536 89 526 q 90 550 88 546 q 109 571 96 564 q 136 576 122 578 q 161 566 150 575 q 174 539 172 557 q 163 487 175 514 q 143 439 151 460 q 124 388 132 411 q 108 340 115 364 q 107 338 107 339 q 149 397 128 368 q 192 454 169 426 q 238 510 213 482 q 297 553 264 538 q 364 551 338 572 q 388 482 390 529 q 370 411 385 450 q 344 338 356 372 q 333 305 339 322 q 322 265 328 288 q 317 247 321 258 q 311 222 314 235 q 308 199 308 210 q 311 186 307 189 q 328 192 317 182 q 346 207 340 203 q 409 281 382 240 q 464 361 436 321 q 488 394 474 376 q 521 411 501 411 q 549 403 536 413 q 560 372 563 393 q 551 348 558 361 q 538 326 544 335 q 501 274 518 296 q 461 219 485 251 q 435 185 449 203 q 405 150 421 167 q 371 122 389 133 q 331 107 353 110 q 253 132 278 100 q 231 214 228 164 q 240 277 232 247 q 258 335 249 307 q 279 391 268 363 q 299 451 290 419 z "},"o":{"ha":428,"x_min":8,"x_max":551,"o":"m 215 567 q 245 566 231 568 q 271 558 260 564 q 283 549 278 556 q 293 540 288 542 q 308 540 301 538 q 321 539 314 542 q 342 508 338 532 q 346 457 346 485 q 335 390 346 421 q 314 328 325 358 q 305 304 311 318 q 300 289 299 290 q 312 288 303 286 q 331 292 321 289 q 350 300 342 296 q 361 306 358 304 q 412 336 393 321 q 451 376 431 351 q 473 399 463 389 q 499 411 483 410 q 538 396 525 414 q 536 353 551 378 q 525 340 533 350 q 506 319 517 331 q 485 297 496 307 q 469 281 475 286 q 392 231 436 253 q 288 207 347 208 q 272 208 281 207 q 260 208 264 210 q 245 192 251 206 q 232 172 239 179 q 196 140 218 157 q 150 121 174 124 q 75 135 108 115 q 26 185 42 156 q 12 233 15 204 q 11 292 8 263 q 28 376 14 333 q 66 455 43 418 q 119 519 89 492 q 182 561 149 547 q 199 565 192 564 q 215 567 207 565 m 224 488 q 210 485 218 489 q 193 476 201 482 q 178 465 185 471 q 171 454 172 458 q 167 426 167 442 q 172 395 168 410 q 179 368 175 381 q 186 350 183 356 q 192 340 188 346 q 203 327 197 333 q 214 316 208 321 q 222 313 219 311 q 229 327 224 314 q 238 346 235 340 q 257 403 250 376 q 265 467 264 431 q 251 468 257 465 q 242 475 246 471 q 233 483 238 479 q 224 488 229 486 m 136 200 q 164 217 150 203 q 175 228 167 219 q 182 242 183 236 q 172 250 178 246 q 158 261 161 258 q 125 299 140 276 q 103 342 110 321 q 92 300 96 325 q 91 252 89 275 q 103 213 93 229 q 136 200 114 197 z "},"p":{"ha":435,"x_min":-119,"x_max":422,"o":"m 165 499 q 196 516 179 504 q 231 538 213 528 q 271 557 250 549 q 314 565 292 565 q 362 553 342 565 q 396 522 382 542 q 416 476 410 501 q 422 422 422 450 q 403 321 422 371 q 353 232 385 271 q 281 169 322 193 q 197 146 240 146 q 153 152 172 146 q 117 169 133 158 q 85 192 100 179 q 54 218 71 206 q 16 99 35 158 q -18 -26 -3 40 q -24 -44 -21 -35 q -28 -61 -28 -54 q -23 -77 -28 -69 q -18 -93 -18 -85 q -26 -125 -18 -110 q -44 -151 -33 -140 q -65 -167 -54 -161 q -82 -174 -76 -174 q -110 -158 -100 -174 q -119 -124 -119 -143 q -112 -69 -119 -96 q -97 -15 -104 -42 q -12 263 -62 129 q 92 526 38 396 q 102 554 97 539 q 114 583 107 569 q 130 606 121 596 q 154 615 139 615 q 188 599 174 615 q 203 563 203 582 q 197 544 203 551 q 185 528 192 536 q 172 514 178 521 q 165 499 167 507 m 285 476 q 224 442 256 465 q 166 393 193 419 q 122 340 139 367 q 104 293 104 314 q 115 270 104 282 q 140 248 125 258 q 173 231 156 238 q 204 225 190 225 q 255 244 231 225 q 299 293 279 264 q 330 357 318 322 q 342 422 342 392 q 334 467 342 450 q 311 483 326 483 q 297 481 304 483 q 285 476 289 479 z "},"q":{"ha":376,"x_min":22,"x_max":397,"o":"m 174 -75 q 200 -74 186 -75 q 229 -74 214 -74 q 265 -76 247 -74 q 296 -83 282 -78 q 318 -98 310 -87 q 326 -125 326 -108 q 316 -151 326 -139 q 288 -164 306 -164 q 262 -158 275 -164 q 225 -151 249 -151 q 191 -157 204 -151 q 167 -169 178 -162 q 147 -180 157 -175 q 122 -185 136 -185 q 89 -169 99 -185 q 79 -135 79 -154 q 87 -85 79 -111 q 101 -39 94 -58 q 152 102 125 36 q 207 231 179 168 q 168 204 185 218 q 119 190 151 190 q 49 226 75 190 q 22 306 22 261 q 40 401 22 353 q 88 487 57 449 q 159 549 118 525 q 246 572 200 572 q 282 565 268 572 q 306 551 296 558 q 328 536 317 543 q 356 529 339 529 l 364 529 q 390 516 383 529 q 397 490 397 503 q 390 451 397 471 q 375 417 382 432 q 268 175 322 297 q 174 -75 214 53 m 172 460 q 150 434 163 451 q 127 394 138 417 q 110 349 117 372 q 103 306 103 326 q 107 279 103 286 q 119 272 111 272 q 152 288 133 272 q 191 327 171 304 q 230 377 211 350 q 263 426 249 404 q 286 463 278 449 q 292 472 294 476 q 283 482 290 478 q 267 488 276 486 q 250 491 258 490 q 239 492 242 492 q 202 480 219 489 q 172 460 185 471 z "},"r":{"ha":358,"x_min":29,"x_max":469,"o":"m 149 714 q 158 715 153 714 q 167 715 163 715 q 231 696 206 715 q 256 635 256 676 q 246 588 256 615 q 239 575 244 585 q 233 560 233 565 q 249 549 233 554 q 281 533 264 543 q 314 508 299 524 q 329 464 329 492 q 322 422 329 442 q 306 384 315 403 q 284 348 296 365 q 264 314 272 331 q 235 253 249 286 q 219 179 221 219 q 229 164 219 164 q 245 170 236 164 q 263 185 254 176 q 277 201 271 193 q 286 213 283 210 q 324 268 306 236 q 362 328 343 300 q 399 376 381 357 q 436 396 417 396 q 469 364 469 396 q 453 319 469 344 q 425 276 436 294 q 385 214 406 247 q 342 152 365 181 q 290 104 318 124 q 228 85 261 85 q 163 112 186 85 q 140 182 140 139 q 167 297 140 243 q 218 396 193 350 q 237 427 225 407 q 249 457 249 447 q 231 473 249 464 q 199 482 213 482 q 175 458 190 482 q 142 406 160 435 q 108 351 124 376 q 83 325 92 326 q 76 323 79 324 q 68 322 72 322 q 41 333 53 322 q 29 363 29 344 q 42 399 29 379 q 72 440 56 419 q 101 476 88 460 q 114 504 114 493 q 100 516 113 510 q 73 532 88 522 q 47 558 58 542 q 35 600 35 574 q 45 644 35 625 q 72 678 56 664 q 109 702 89 693 q 149 714 129 711 m 128 622 q 120 612 125 619 q 115 599 115 604 q 121 592 115 596 q 133 585 126 589 q 146 578 140 581 q 154 575 151 575 q 162 587 158 579 q 168 603 165 594 q 173 621 171 613 q 175 633 175 629 q 163 635 171 635 q 128 622 143 635 z "},"s":{"ha":325,"x_min":-10,"x_max":357,"o":"m 307 608 l 313 608 q 344 599 331 608 q 357 569 357 589 q 342 538 357 542 q 313 526 326 533 q 274 480 288 511 q 260 410 260 449 q 265 363 260 386 q 276 315 269 339 q 287 267 282 290 q 292 218 292 243 q 283 158 292 186 q 259 108 275 131 q 219 74 243 86 q 163 61 194 61 q 93 79 125 61 q 38 126 61 97 q 3 190 15 154 q -10 258 -10 225 q 2 322 -10 289 q 33 381 14 354 q 74 426 51 408 q 117 443 96 443 q 144 433 132 443 q 157 406 157 422 q 140 371 157 382 q 111 350 122 360 q 83 309 94 335 q 71 253 71 283 q 77 219 71 238 q 96 183 83 200 q 126 153 108 165 q 164 142 143 142 q 201 161 192 142 q 211 210 211 181 q 206 261 211 236 q 196 310 201 286 q 185 358 190 333 q 181 413 181 383 q 189 478 181 444 q 213 539 197 511 q 253 585 229 567 q 307 608 276 604 z "},"t":{"ha":207,"x_min":-360,"x_max":606,"o":"m 257 756 q 381 765 319 758 q 511 772 443 772 q 558 774 538 772 q 590 764 578 775 q 602 746 599 757 q 603 724 606 735 q 595 703 601 713 q 578 692 589 694 q 561 691 569 689 q 543 693 553 693 q 424 691 485 697 q 301 679 363 685 q 285 678 296 679 q 263 677 274 678 q 241 675 251 676 q 226 671 231 674 q 219 661 222 668 q 211 644 215 654 q 204 626 207 635 q 200 614 201 618 q 147 465 171 539 q 101 304 122 392 q 89 235 96 278 q 88 219 89 229 q 86 197 86 208 q 88 177 86 186 q 96 167 90 168 q 105 169 100 165 q 114 178 110 174 q 122 189 118 183 q 126 196 125 194 q 185 284 158 240 q 240 379 213 328 q 262 417 250 397 q 297 438 274 436 q 336 400 336 439 q 328 377 336 393 q 312 343 321 361 q 293 309 303 325 q 278 285 283 293 q 260 253 269 269 q 239 219 250 236 q 197 153 219 189 q 146 101 174 118 q 95 86 119 85 q 52 101 71 88 q 21 138 33 115 q 7 186 8 160 q 11 255 4 222 q 25 319 18 288 q 73 497 44 411 q 133 661 101 582 q -77 647 31 651 q -293 642 -185 642 q -312 639 -303 642 q -333 639 -322 636 q -353 653 -346 643 q -360 676 -360 664 q -355 698 -360 688 q -339 714 -350 708 q -313 721 -329 719 q -280 722 -297 722 q -245 722 -262 722 q -214 721 -228 721 q -53 728 -126 724 q 106 739 21 732 q 139 742 119 742 q 165 746 158 742 q 175 762 171 749 q 182 782 179 775 q 222 874 201 831 q 264 961 243 917 q 283 1001 274 981 q 311 1025 292 1022 q 343 1019 329 1028 q 360 994 357 1010 q 353 961 363 975 q 338 932 344 947 q 295 844 317 888 q 257 756 274 800 z "},"u":{"ha":488,"x_min":7,"x_max":600,"o":"m 272 238 q 242 199 258 221 q 206 156 225 176 q 163 123 186 136 q 114 110 140 110 q 38 142 69 110 q 7 228 7 175 q 15 305 7 269 q 35 374 22 340 q 63 438 47 407 q 94 503 79 469 q 108 530 100 515 q 124 557 115 544 q 145 578 133 569 q 171 586 157 586 q 203 573 190 586 q 215 543 215 560 q 201 514 215 528 q 183 493 188 500 q 153 441 169 471 q 122 377 136 411 q 97 306 107 343 q 88 233 88 269 q 92 203 88 217 q 113 190 97 190 q 150 212 129 190 q 192 264 171 233 q 233 328 214 294 q 268 388 253 363 q 301 444 283 414 q 337 502 318 475 q 375 547 356 529 q 411 565 394 565 q 441 553 429 565 q 453 524 453 540 q 444 490 453 506 q 425 454 435 474 q 372 333 392 388 q 353 221 353 279 q 360 193 353 193 q 374 201 367 193 q 385 211 382 208 q 436 267 411 232 q 483 337 461 303 q 525 395 506 371 q 563 419 544 419 q 600 388 600 419 q 583 346 600 372 q 556 301 567 319 q 517 240 539 274 q 471 179 496 207 q 417 133 446 151 q 358 114 389 114 q 297 142 322 114 q 271 217 271 171 q 272 238 271 231 z "},"v":{"ha":500,"x_min":0,"x_max":614,"o":"m 375 297 q 457 335 424 307 q 524 393 490 363 q 547 414 535 403 q 574 425 558 425 q 614 394 614 425 q 590 349 614 379 q 529 288 567 318 q 446 234 492 257 q 357 211 400 211 q 340 212 349 211 q 325 213 332 213 q 308 203 314 213 q 294 183 301 193 q 249 133 274 160 q 197 82 224 106 q 144 43 171 58 q 97 28 118 28 q 49 41 68 28 q 19 76 31 54 q 4 124 8 97 q 0 181 0 151 q 17 309 0 240 q 58 437 33 378 q 111 535 83 496 q 160 574 139 574 q 188 563 175 574 q 200 532 200 551 q 193 510 200 518 q 178 489 186 501 q 140 420 157 460 q 109 339 122 381 q 88 255 96 297 q 81 178 81 213 q 81 156 81 168 q 83 134 82 144 q 88 116 85 124 q 94 108 90 108 q 133 130 108 108 q 183 178 158 151 q 227 228 208 204 q 246 256 246 251 q 237 283 246 268 q 228 321 228 299 q 236 375 228 347 q 257 428 244 403 q 285 476 269 454 q 314 514 300 499 q 351 550 326 529 q 408 571 376 571 q 453 551 436 571 q 469 500 469 532 q 458 442 469 469 q 433 389 447 414 q 401 341 418 364 q 375 297 385 318 m 317 353 q 351 408 332 381 q 379 467 369 436 q 342 413 360 442 q 317 353 324 385 z "},"w":{"ha":700,"x_min":-29,"x_max":813,"o":"m 543 275 q 622 294 590 274 q 682 339 653 314 q 702 357 690 346 q 727 378 714 368 q 753 394 740 388 q 775 401 765 401 q 800 393 788 400 q 808 364 813 386 q 788 331 806 350 q 761 303 771 313 q 724 270 744 288 q 681 237 704 253 q 633 210 658 221 q 582 196 608 199 q 553 194 569 194 q 531 196 538 194 q 511 203 522 197 q 493 208 500 210 q 476 194 486 208 q 456 169 465 179 q 395 116 431 142 q 318 79 360 90 q 276 78 296 74 q 241 95 256 83 q 219 125 226 107 q 211 164 211 143 q 160 104 188 136 q 96 57 132 72 q 40 49 64 42 q 1 78 17 57 q -22 130 -15 99 q -26 194 -29 161 q -15 254 -24 225 q 4 308 -6 283 q 44 409 22 361 q 97 504 67 457 q 129 549 110 524 q 167 576 149 574 q 198 573 186 581 q 214 552 210 565 q 215 524 218 539 q 204 499 213 510 q 191 490 196 490 q 181 483 186 489 q 159 453 169 474 q 140 417 149 432 q 104 347 122 385 q 74 271 86 310 q 58 219 67 246 q 53 161 49 193 q 57 143 54 154 q 63 131 60 132 q 69 132 65 129 q 78 138 74 135 q 88 145 83 142 q 93 150 92 149 q 147 213 121 174 q 197 282 174 251 q 222 317 213 301 q 247 350 232 332 q 272 385 258 365 q 306 408 286 406 q 335 402 321 411 q 351 378 349 393 q 348 347 354 361 q 335 322 342 333 q 315 275 324 296 q 299 218 307 254 q 295 205 297 214 q 292 186 293 196 q 290 169 290 176 q 293 158 290 161 q 301 158 294 156 q 315 163 308 160 q 329 169 322 165 q 340 175 336 172 q 378 206 364 190 q 411 240 393 221 q 429 258 418 247 q 442 278 440 269 q 440 291 443 283 q 438 306 438 299 q 451 403 433 356 q 489 488 468 451 q 535 547 508 521 q 554 564 543 554 q 578 581 565 574 q 607 590 592 588 q 638 585 622 592 q 665 547 663 572 q 660 494 668 522 q 638 438 651 465 q 618 396 625 411 q 581 331 600 360 q 543 275 561 303 z "},"x":{"ha":468,"x_min":-118,"x_max":564,"o":"m 190 160 q 111 58 154 110 q 15 -37 68 6 q -21 -62 1 -49 q -64 -79 -43 -76 q -97 -72 -85 -82 q -114 -49 -110 -62 q -113 -22 -118 -36 q -93 0 -108 -7 q -81 2 -87 3 q -67 4 -74 1 q -49 13 -58 7 q -29 28 -39 19 q -11 44 -19 36 q 3 58 -3 53 q 75 139 43 97 q 140 229 107 181 q 154 250 146 239 q 164 267 163 261 q 159 295 165 278 q 149 326 153 313 q 133 382 142 357 q 108 435 124 407 q 94 460 101 446 q 81 481 88 475 q 64 488 74 486 q 49 496 54 489 q 40 517 40 506 q 44 540 39 529 q 58 558 50 550 q 78 567 67 565 q 107 562 93 568 q 131 547 121 556 q 161 506 149 531 q 185 461 174 482 q 206 414 197 438 q 222 360 215 390 q 238 375 231 367 q 251 393 244 383 q 317 486 283 439 q 393 574 351 533 q 436 611 413 590 q 488 635 460 632 q 521 626 507 636 q 540 601 535 615 q 541 572 546 586 q 519 550 536 557 q 504 549 511 547 q 490 550 497 551 q 472 538 483 549 q 453 519 460 526 q 374 429 407 478 q 304 331 340 381 q 291 313 299 322 q 276 292 283 303 q 261 269 269 281 q 251 250 253 258 q 253 229 250 242 q 258 206 256 217 q 269 166 264 185 q 286 128 275 147 q 295 111 289 121 q 308 100 301 101 q 340 112 322 97 q 368 138 358 126 q 395 173 382 151 q 422 218 408 194 q 449 266 436 242 q 474 313 461 290 q 493 351 483 332 q 526 372 503 371 q 551 365 543 374 q 563 344 560 357 q 560 319 564 333 q 549 289 556 304 q 535 260 542 274 q 524 239 528 247 q 472 146 499 190 q 408 68 446 101 q 363 33 389 51 q 301 18 338 15 q 258 33 276 19 q 228 67 240 47 q 206 112 215 88 q 190 160 197 136 z "},"y":{"ha":469,"x_min":-321,"x_max":999,"o":"m 332 75 q 444 81 383 78 q 567 85 504 83 q 694 88 631 88 q 818 85 758 88 q 913 76 867 82 q 982 42 960 69 q 994 17 990 32 q 997 -12 999 1 q 986 -36 994 -26 q 960 -46 978 -46 q 944 -42 951 -46 q 932 -33 936 -37 q 926 -20 926 -28 q 919 -6 925 -12 q 890 2 914 0 q 850 7 867 4 q 654 13 753 15 q 457 6 556 10 q 402 1 433 3 q 343 -3 371 -1 q 320 -2 332 -3 q 304 -4 308 -1 q 299 -12 301 -6 q 292 -28 296 -19 q 286 -45 289 -37 q 282 -57 283 -53 q 244 -133 265 -96 q 199 -199 222 -171 q 126 -277 167 -239 q 35 -335 85 -315 q -8 -344 14 -343 q -49 -340 -29 -346 q -87 -324 -69 -335 q -115 -297 -104 -312 q -135 -244 -129 -276 q -141 -178 -142 -212 q -135 -111 -140 -144 q -121 -54 -129 -78 q -147 -60 -135 -57 q -174 -67 -160 -64 q -199 -73 -185 -69 q -221 -83 -214 -76 q -228 -97 -226 -89 q -233 -108 -231 -104 q -258 -124 -242 -121 q -288 -124 -274 -128 q -312 -107 -303 -119 q -318 -72 -321 -94 q -304 -44 -315 -56 q -277 -24 -293 -32 q -244 -10 -261 -15 q -214 0 -228 -4 q -13 42 -118 31 q 207 65 92 54 q 231 66 218 67 q 247 68 244 65 q 254 83 249 69 q 265 114 260 97 q 276 146 271 131 q 282 164 281 161 q 297 213 290 192 q 310 255 304 235 q 322 297 317 275 q 335 346 328 318 q 294 288 313 315 q 254 237 275 261 q 209 192 233 213 q 151 154 185 172 q 97 141 122 139 q 53 158 72 143 q 24 197 35 172 q 13 253 13 221 q 19 315 11 281 q 40 386 28 350 q 68 457 53 422 q 99 519 83 492 q 128 564 115 547 q 150 582 142 581 q 183 571 169 583 q 193 539 196 558 q 184 517 192 526 q 169 496 176 507 q 140 438 154 471 q 115 372 126 404 q 97 311 104 339 q 90 271 90 283 q 92 238 90 254 q 100 218 94 221 q 112 221 104 217 q 128 231 119 225 q 145 244 138 238 q 156 253 153 250 q 216 317 190 286 q 263 381 242 349 q 303 451 283 414 q 350 531 324 488 q 374 564 361 547 q 414 575 388 581 q 440 552 433 571 q 445 508 446 533 q 439 458 444 483 q 429 417 433 433 q 383 240 411 325 q 332 75 356 154 m 42 -29 q 12 -31 28 -31 q -15 -36 -4 -32 q -28 -47 -21 -39 q -40 -62 -36 -56 q -56 -103 -50 -78 q -62 -156 -61 -128 q -64 -195 -64 -175 q -59 -232 -64 -215 q -43 -259 -54 -249 q -11 -268 -32 -269 q 29 -251 8 -265 q 65 -225 50 -236 q 155 -129 118 -185 q 215 -12 192 -74 q 128 -19 171 -15 q 42 -29 85 -24 z "},"z":{"ha":599,"x_min":-139,"x_max":711,"o":"m 179 168 q 266 154 239 172 q 301 92 293 136 q 302 73 303 85 q 304 58 301 61 q 314 61 306 57 q 333 71 322 65 q 352 81 343 76 q 365 89 361 86 q 443 150 406 115 q 511 217 481 185 q 572 290 543 253 q 625 374 601 328 q 640 402 632 388 q 668 419 649 417 q 698 413 688 422 q 710 388 708 403 q 701 351 711 371 q 683 318 692 332 q 574 169 639 238 q 436 49 510 101 q 389 19 414 33 q 336 -10 364 4 q 315 -18 328 -14 q 300 -25 303 -22 q 296 -42 297 -29 q 292 -61 294 -54 q 249 -168 276 -124 q 182 -256 222 -212 q 136 -297 163 -276 q 78 -329 110 -317 q 4 -343 49 -340 q -76 -329 -40 -346 q -125 -277 -111 -314 q -122 -203 -139 -240 q -63 -121 -101 -154 q 19 -60 -25 -87 q 101 -17 56 -35 q 199 17 146 0 q 213 21 203 18 q 225 25 224 24 q 226 39 226 28 q 225 63 226 50 q 222 85 224 75 q 219 96 221 94 q 190 99 213 100 q 157 94 167 97 q 124 83 142 92 q 89 78 106 75 q 67 87 78 79 q 54 106 57 94 q 60 140 50 125 q 81 168 71 156 q 232 335 149 260 q 404 483 315 410 q 324 482 364 483 q 242 483 283 481 q 213 488 231 485 q 189 488 196 490 q 182 479 186 486 q 174 463 178 472 q 165 447 169 454 q 160 436 161 439 q 129 387 144 408 q 94 340 114 365 q 76 317 86 329 q 50 304 67 306 q 24 313 36 304 q 8 335 11 321 q 18 369 6 354 q 38 393 31 385 q 73 445 57 419 q 106 503 89 471 q 129 539 117 522 q 169 558 142 556 q 213 558 190 561 q 257 554 235 556 q 389 554 318 550 q 513 567 460 558 q 549 561 531 569 q 568 531 568 553 q 553 502 568 513 q 524 481 539 492 q 495 460 508 471 q 471 440 482 449 q 318 312 390 375 q 179 168 246 249 m 89 -103 q 38 -135 63 -118 q -7 -172 13 -153 q -21 -187 -11 -176 q -39 -210 -31 -197 q -51 -237 -47 -224 q -46 -261 -54 -251 q -7 -272 -35 -272 q 36 -267 21 -271 q 99 -233 71 -257 q 148 -181 126 -210 q 185 -119 169 -151 q 211 -57 201 -86 q 210 -56 211 -54 q 147 -76 178 -65 q 89 -103 117 -87 z "},"!":{"ha":308,"x_min":10,"x_max":313,"o":"m 267 772 l 271 772 q 299 761 285 772 q 313 722 313 750 q 298 658 313 692 q 276 600 283 624 q 226 454 253 529 q 176 311 200 379 q 164 274 171 294 q 148 234 157 253 q 126 203 139 215 q 96 192 114 192 q 67 203 78 192 q 56 231 56 215 q 64 256 56 246 q 79 278 72 265 q 101 331 92 301 q 118 383 110 360 q 153 490 135 435 q 190 597 171 546 q 212 651 199 622 q 228 703 225 679 q 227 713 228 707 q 226 726 226 719 q 235 753 226 736 q 267 772 243 771 m 71 110 l 79 110 q 106 99 99 110 q 114 72 114 88 q 98 24 114 49 q 58 0 82 0 q 24 17 39 0 q 10 53 10 33 q 27 89 10 72 q 71 110 44 106 z "},"\"":{"ha":293,"x_min":3,"x_max":239,"o":"m 56 883 q 60 884 58 883 q 65 885 63 885 q 101 866 89 885 q 114 819 114 847 q 106 777 113 799 q 90 738 100 756 q 69 710 81 721 q 44 699 57 699 q 16 709 29 699 q 3 739 3 719 q 7 757 3 749 q 17 774 11 765 q 26 792 22 782 q 31 814 31 801 q 27 826 31 824 q 22 840 24 829 q 56 883 22 876 m 189 874 q 194 874 192 874 q 199 875 196 875 q 228 861 218 875 q 239 824 239 847 q 232 774 239 796 q 215 735 225 751 q 194 711 206 719 q 172 703 182 703 q 142 715 154 703 q 129 743 129 726 q 135 763 129 758 q 149 778 142 767 q 157 808 156 792 q 160 837 158 824 q 167 860 161 850 q 189 874 172 869 z "},"#":{"ha":658,"x_min":0,"x_max":599,"o":"m 332 213 q 280 217 306 214 q 218 221 254 221 q 194 210 199 221 q 187 185 190 199 q 176 160 183 172 q 146 147 169 149 q 117 160 126 147 q 107 189 107 172 q 108 199 107 194 q 110 208 110 204 q 100 214 110 214 q 60 208 71 214 q 38 203 49 203 q 10 216 21 203 q 0 244 0 229 q 10 271 0 261 q 38 285 21 281 q 74 292 54 290 q 113 293 93 293 l 126 293 q 147 309 136 293 q 166 347 157 325 q 182 391 175 369 q 192 424 189 413 q 167 422 178 421 q 146 421 157 424 q 130 415 138 418 q 115 411 122 411 q 82 425 94 411 q 69 456 69 439 q 85 488 69 479 q 125 499 101 497 q 175 499 149 500 q 222 504 201 499 q 240 528 235 510 q 251 568 244 547 q 267 605 257 589 q 300 621 278 621 q 328 610 315 621 q 342 581 342 600 q 328 546 342 561 q 313 510 315 531 q 354 507 335 507 q 401 504 374 507 q 426 501 411 504 q 451 499 440 499 q 469 510 460 499 q 485 538 478 522 q 499 569 493 554 q 506 589 504 583 q 518 631 513 613 q 549 649 524 649 q 578 633 567 649 q 590 597 590 618 q 583 567 589 582 q 569 538 576 551 q 556 513 561 524 q 550 496 550 503 q 563 488 554 489 q 578 484 571 486 q 592 476 586 482 q 599 453 599 469 q 590 425 599 438 q 561 413 581 413 q 541 415 551 413 q 521 417 531 417 q 506 403 514 417 q 488 370 497 390 q 469 327 479 350 q 450 285 460 304 q 467 276 450 278 q 503 271 483 275 q 539 256 522 267 q 556 224 556 246 q 542 194 556 204 q 514 185 529 185 q 469 194 494 185 q 419 204 443 204 q 399 174 408 204 q 376 109 389 144 q 344 44 363 74 q 297 14 325 14 q 274 22 289 14 q 258 54 258 31 q 265 75 258 69 q 279 90 272 81 q 293 121 289 104 q 304 153 297 138 q 318 183 311 168 q 332 213 325 197 m 331 429 q 318 429 326 429 q 301 429 310 429 q 286 428 293 429 q 278 424 279 426 q 253 362 263 396 q 231 299 244 328 q 295 292 264 296 q 358 289 326 289 q 372 304 364 289 q 390 340 381 319 q 409 384 400 361 q 425 422 418 407 q 379 426 404 425 q 331 429 354 428 z "},"$":{"ha":531,"x_min":1,"x_max":469,"o":"m 418 751 q 423 752 421 751 q 428 753 425 753 q 458 740 447 753 q 469 713 469 728 q 455 678 469 696 q 440 647 440 661 q 446 635 442 640 q 456 624 450 631 q 465 610 461 618 q 469 590 469 601 q 459 559 469 572 q 431 546 449 546 q 415 551 422 546 q 403 556 408 556 q 380 525 394 553 q 351 466 365 497 q 328 411 338 435 q 318 392 318 388 q 331 369 318 383 q 358 336 343 356 q 385 291 372 317 q 397 232 397 265 q 378 158 397 190 q 330 105 360 126 q 263 72 300 83 q 189 61 226 61 q 178 62 186 61 q 167 63 171 63 q 158 53 160 63 q 153 31 157 43 q 140 10 149 19 q 113 0 132 0 q 85 10 97 0 q 72 39 72 19 q 81 71 72 56 q 89 96 89 86 q 75 113 88 103 q 57 129 63 122 q 18 194 35 156 q 1 278 1 233 q 20 338 1 314 q 71 361 39 361 q 98 348 89 361 q 107 321 107 335 q 103 301 107 308 q 93 290 99 294 q 83 283 88 286 q 79 274 79 279 q 83 251 79 267 q 94 218 88 235 q 108 190 100 201 q 122 178 115 178 q 134 196 125 179 q 154 235 143 213 q 178 285 165 258 q 201 333 190 311 q 217 367 211 354 q 224 376 224 379 q 215 390 224 381 q 203 404 207 399 q 172 456 186 428 q 158 524 158 483 q 171 582 158 554 q 206 632 183 610 q 258 667 228 654 q 326 681 289 681 q 342 678 335 681 q 360 675 350 675 q 372 685 367 675 q 382 710 376 696 q 395 736 388 724 q 418 751 403 749 m 239 540 q 238 524 238 535 q 245 487 238 504 q 264 458 253 469 q 299 529 281 496 q 333 601 318 563 q 273 585 301 601 q 239 540 244 568 m 317 225 q 317 229 317 228 q 318 233 318 231 q 303 275 318 254 q 279 311 289 296 q 234 227 256 269 q 193 140 213 185 q 274 165 240 140 q 317 225 307 189 z "},"%":{"ha":400,"x_min":-33,"x_max":375,"o":"m 131 642 q 167 617 158 636 q 169 577 175 597 q 145 543 163 557 q 104 533 128 529 q 69 558 79 536 q 64 600 60 579 q 131 642 82 649 m 247 235 q 283 210 275 229 q 286 172 292 192 q 263 137 281 151 q 221 126 244 122 q 187 152 197 131 q 183 193 176 174 q 207 228 190 217 q 247 235 224 239 m 338 664 q 357 655 346 661 q 372 635 368 649 q 365 592 375 617 q 340 543 356 568 q 309 497 325 518 q 285 463 293 475 q 195 337 240 401 q 108 214 150 272 q 88 182 99 200 q 63 149 76 164 q 34 125 49 135 q 4 118 19 115 q -25 138 -17 122 q -31 168 -33 153 q -15 190 -26 183 q 6 207 -4 196 q 40 251 24 226 q 72 297 57 276 q 135 391 103 343 q 200 482 168 439 q 221 510 208 493 q 245 545 233 528 q 267 579 257 563 q 282 606 278 596 q 285 623 283 613 q 293 640 286 633 q 309 659 299 651 q 338 664 319 667 z "},"&":{"ha":524,"x_min":6,"x_max":476,"o":"m 310 314 q 352 352 335 333 q 376 399 369 371 q 386 436 382 419 q 415 451 390 453 q 446 441 433 451 q 458 413 458 431 q 430 326 458 368 q 363 253 401 285 q 342 238 350 242 q 331 227 335 233 q 324 209 326 221 q 321 172 322 197 q 310 126 317 149 q 292 84 303 103 q 266 53 281 65 q 232 42 251 42 q 203 53 213 42 q 193 81 193 64 q 200 101 193 93 q 215 118 207 110 q 231 137 224 126 q 238 165 238 147 q 236 168 238 168 q 184 157 207 168 q 128 146 161 146 q 38 175 69 146 q 6 253 6 204 q 30 323 6 292 q 83 377 54 354 q 137 415 113 400 q 161 439 161 431 q 157 455 161 444 q 150 469 153 465 q 143 524 143 500 q 162 611 143 571 q 210 681 181 651 q 277 728 240 711 q 351 746 314 746 q 440 719 403 746 q 476 646 476 693 q 466 603 475 622 q 444 569 457 585 q 416 539 431 553 q 389 513 401 525 q 357 487 378 501 q 315 459 336 472 q 278 434 294 446 q 263 418 263 422 q 267 408 263 415 q 276 394 271 401 q 285 379 281 386 q 290 369 289 372 q 301 342 297 354 q 310 314 304 329 m 363 600 q 382 621 369 607 q 394 647 394 635 q 384 662 394 658 q 358 665 374 665 q 306 653 331 665 q 264 622 282 642 q 235 576 246 603 q 224 518 224 549 q 224 504 224 511 q 226 490 225 497 q 363 600 304 538 m 104 290 q 86 254 86 272 q 101 231 86 238 q 135 225 117 225 q 164 229 146 225 q 199 240 182 233 q 228 253 215 246 q 240 265 240 260 q 235 292 240 276 q 224 322 231 307 q 210 349 217 336 q 200 367 203 361 q 153 330 183 350 q 104 290 122 310 z "},"'":{"ha":186,"x_min":4,"x_max":115,"o":"m 58 874 q 63 874 61 874 q 68 875 65 875 q 103 856 92 875 q 115 810 115 838 q 109 769 115 790 q 93 729 103 747 q 70 700 83 711 q 44 689 57 689 q 17 699 29 689 q 4 728 4 710 q 8 746 4 738 q 18 763 13 754 q 28 781 24 771 q 32 803 32 790 q 28 817 32 814 q 25 833 25 819 q 58 874 25 867 z "},"(":{"ha":279,"x_min":7,"x_max":372,"o":"m 319 808 l 325 808 q 358 795 344 808 q 372 765 372 782 q 367 746 372 753 q 356 735 363 739 q 340 729 349 731 q 326 725 332 728 q 301 704 315 719 q 278 681 286 689 q 222 622 249 651 q 175 553 196 592 q 143 486 158 524 q 115 409 128 449 q 95 328 103 369 q 88 253 88 288 q 101 165 88 208 q 133 92 114 122 q 154 71 140 79 q 168 42 168 63 q 157 11 168 22 q 128 0 146 0 q 73 33 96 0 q 35 109 50 65 q 14 197 21 153 q 7 263 7 240 q 26 385 7 328 q 64 492 44 442 q 135 635 94 574 q 240 753 175 696 q 274 785 256 767 q 319 808 293 804 z "},")":{"ha":414,"x_min":6,"x_max":371,"o":"m 58 0 l 53 0 q 19 13 33 0 q 6 43 6 26 q 10 63 6 56 q 22 74 15 69 q 37 79 29 78 q 51 83 44 81 q 77 104 63 89 q 100 128 92 119 q 156 187 129 157 q 203 256 182 217 q 235 322 219 285 q 263 399 250 360 q 283 479 275 439 q 290 556 290 519 q 277 643 290 600 q 244 717 264 686 q 224 738 238 729 q 210 767 210 746 q 221 797 210 786 q 250 808 232 808 q 305 776 282 808 q 342 699 328 743 q 364 612 357 656 q 371 546 371 568 q 352 424 371 481 q 314 317 333 367 q 243 174 283 235 q 138 56 203 113 q 103 23 122 42 q 58 0 85 4 z "},"*":{"ha":411,"x_min":1,"x_max":350,"o":"m 275 689 q 326 683 303 689 q 350 647 350 678 q 327 614 350 621 q 275 607 304 607 q 244 608 260 607 q 215 608 229 608 q 249 551 228 576 q 269 501 269 526 q 258 471 269 483 q 231 458 247 458 q 201 474 214 458 q 178 507 188 489 q 161 540 168 525 q 150 556 154 556 q 136 546 143 556 q 121 525 129 536 q 103 504 113 514 q 81 494 93 494 q 53 506 65 494 q 42 533 42 517 q 47 555 42 546 q 58 571 51 564 q 71 584 64 578 q 81 599 78 590 q 56 595 65 599 q 38 592 47 592 q 10 605 18 592 q 1 632 1 618 q 8 657 1 649 q 26 669 15 665 q 52 675 38 674 q 83 679 67 676 q 64 718 64 693 q 76 746 64 735 q 101 757 89 757 q 126 749 115 757 q 145 731 138 742 q 158 710 153 721 q 167 692 164 699 q 184 701 175 692 q 202 721 193 710 q 220 741 211 732 q 239 750 229 750 q 268 738 257 750 q 279 708 279 726 q 275 689 279 699 z "},"+":{"ha":389,"x_min":0,"x_max":326,"o":"m 210 400 q 240 403 224 401 q 271 404 256 404 q 310 397 294 404 q 326 368 326 390 q 325 358 326 365 q 319 342 324 350 q 308 328 315 335 q 289 322 301 322 q 278 323 283 322 q 267 324 272 324 q 243 322 257 324 q 214 321 229 321 l 193 321 q 167 299 174 321 q 154 253 160 278 q 139 206 149 228 q 106 185 129 185 q 94 186 101 185 q 80 192 86 188 q 69 204 74 196 q 64 226 64 213 q 75 268 64 250 q 90 313 86 286 l 83 313 q 62 310 72 313 q 40 307 51 307 q 10 320 21 308 q 0 347 0 332 q 8 372 0 364 q 29 385 17 381 q 58 392 42 390 q 89 394 74 393 l 106 394 q 134 422 125 394 q 151 481 143 449 q 172 540 160 513 q 210 567 185 567 q 238 556 225 567 q 251 525 251 544 q 246 494 251 510 q 233 463 240 479 q 219 430 226 446 q 210 400 213 414 z "},",":{"ha":175,"x_min":8,"x_max":118,"o":"m 74 238 q 109 222 100 240 q 118 172 118 203 q 105 121 118 147 q 78 85 92 94 q 51 78 65 76 q 28 88 38 79 q 13 109 18 96 q 15 138 8 122 q 26 151 18 146 q 38 167 35 156 q 37 188 40 178 q 36 206 33 197 q 47 227 39 218 q 74 238 56 236 z "},"-":{"ha":367,"x_min":3,"x_max":315,"o":"m 256 404 q 281 401 268 407 q 303 386 294 396 q 314 363 313 376 q 304 336 315 350 q 270 319 294 324 q 217 314 246 315 q 158 313 188 313 q 106 308 128 313 q 75 303 90 306 q 46 300 60 300 q 22 306 32 300 q 7 329 11 313 q 14 360 3 349 q 42 378 25 372 q 80 387 60 385 q 115 390 100 389 q 178 392 144 394 q 236 396 211 389 q 244 399 240 397 q 256 404 247 401 z "},".":{"ha":171,"x_min":8,"x_max":125,"o":"m 58 278 q 88 276 75 282 q 110 258 101 269 q 122 230 118 246 q 124 199 125 214 q 108 161 121 178 q 78 142 96 144 q 40 147 56 138 q 16 175 24 157 q 9 215 8 193 q 22 253 10 236 q 36 267 26 260 q 58 278 46 275 z "},"/":{"ha":292,"x_min":1,"x_max":331,"o":"m 283 740 q 309 735 293 742 q 328 708 325 728 q 322 674 331 693 q 306 639 313 654 q 269 553 289 599 q 228 462 249 508 q 188 370 207 415 q 151 286 168 325 q 124 222 138 254 q 99 156 110 189 q 81 112 90 132 q 46 92 72 92 q 20 99 32 90 q 6 119 8 108 q 12 158 1 138 q 29 196 22 178 q 75 308 53 253 q 118 417 97 364 q 173 540 144 478 q 228 663 201 603 q 237 688 232 675 q 247 712 242 700 q 262 731 253 724 q 283 740 271 739 z "},":":{"ha":186,"x_min":4,"x_max":143,"o":"m 54 314 q 84 312 71 318 q 106 294 97 306 q 117 266 114 282 q 119 235 121 250 q 104 197 117 214 q 74 178 92 181 q 35 183 51 174 q 12 211 19 193 q 5 251 4 229 q 18 289 6 272 q 32 303 22 296 q 54 314 42 311 m 88 585 q 130 572 117 588 q 143 535 143 556 q 130 495 143 514 q 93 474 117 476 q 53 488 68 471 q 38 528 38 506 q 51 567 38 553 q 88 585 64 582 z "},";":{"ha":182,"x_min":-1,"x_max":178,"o":"m 117 663 q 155 656 140 667 q 174 626 169 644 q 173 590 178 608 q 153 560 168 571 q 128 550 142 551 q 101 554 114 549 q 80 569 89 560 q 71 594 71 579 q 81 639 68 618 q 117 663 93 660 m 64 382 q 99 366 90 385 q 108 317 108 347 q 95 265 108 292 q 68 229 82 239 q 42 222 56 221 q 18 232 28 224 q 3 253 8 240 q 6 282 -1 267 q 17 295 8 290 q 28 311 25 300 q 27 332 31 322 q 26 350 24 342 q 38 372 29 363 q 64 382 46 381 z "},"<":{"ha":369,"x_min":-4,"x_max":349,"o":"m 222 150 q 203 153 211 149 q 188 164 194 157 q 176 178 182 171 q 161 193 169 186 q 124 219 147 204 q 79 246 100 233 q 35 271 61 257 q 3 301 10 285 q 0 331 -4 318 q 14 352 4 343 q 36 369 24 361 q 60 385 49 376 q 133 439 100 414 q 207 496 167 464 q 223 509 214 503 q 235 519 232 515 q 238 534 238 526 q 242 547 239 542 q 271 570 251 564 q 308 574 290 576 q 338 557 326 571 q 343 518 349 543 q 325 486 340 500 q 296 460 310 472 q 226 402 260 428 q 147 344 192 376 q 129 332 140 339 q 118 322 118 325 q 124 317 118 321 q 138 308 131 313 q 151 299 144 303 q 160 294 158 296 q 183 282 174 288 q 203 269 193 276 q 221 255 211 263 q 240 238 231 247 q 256 217 249 228 q 263 193 263 206 q 222 150 263 154 z "},">":{"ha":417,"x_min":-4,"x_max":347,"o":"m 122 563 q 156 549 144 564 q 183 519 168 533 q 221 494 197 508 q 265 467 244 479 q 309 442 283 456 q 342 411 335 428 q 344 382 347 394 q 331 360 340 369 q 308 344 321 351 q 285 328 296 336 q 211 274 244 299 q 138 217 178 249 q 122 203 131 210 q 110 193 113 197 q 106 178 107 186 q 103 165 106 171 q 74 142 93 149 q 36 139 54 136 q 7 156 18 142 q 1 194 -4 169 q 19 226 4 213 q 49 253 35 240 q 119 310 85 285 q 197 368 153 336 q 215 381 204 374 q 226 390 226 388 q 220 396 226 392 q 206 405 214 400 q 192 413 199 410 q 185 418 186 417 q 161 431 171 425 q 142 443 151 436 q 124 457 133 449 q 105 475 114 465 q 89 496 96 485 q 82 519 82 507 q 122 563 82 558 z "},"=":{"ha":419,"x_min":1,"x_max":358,"o":"m 200 554 q 226 556 211 556 q 256 557 240 557 q 292 555 274 557 q 326 548 311 553 q 349 533 340 543 q 358 508 358 524 q 345 479 358 493 q 313 465 332 465 q 281 472 301 465 q 238 478 261 478 q 176 472 206 478 q 115 465 147 465 q 84 473 97 465 q 71 503 71 481 q 83 531 71 521 q 113 545 94 540 q 155 551 132 550 q 200 554 178 553 m 168 433 q 192 435 179 435 q 215 435 204 435 q 272 426 250 435 q 294 389 294 417 q 281 358 294 371 q 253 344 268 344 q 226 351 236 344 q 197 357 215 357 q 121 348 160 357 q 47 339 82 339 q 15 351 28 339 q 1 382 1 363 q 19 410 1 400 q 63 424 38 419 q 117 431 89 429 q 168 433 146 432 z "},"?":{"ha":386,"x_min":1,"x_max":343,"o":"m 179 772 q 190 773 185 772 q 200 774 194 774 q 303 736 263 774 q 343 639 343 699 q 328 563 343 596 q 290 503 313 531 q 242 452 267 476 q 197 400 217 428 q 170 355 181 379 q 151 310 160 331 q 133 277 143 290 q 108 264 124 264 q 86 269 94 264 q 73 282 78 275 q 67 296 68 289 q 65 306 65 303 q 90 385 65 344 q 147 463 115 425 q 210 532 179 500 q 251 588 240 564 q 259 610 256 597 q 263 638 263 622 q 244 681 263 668 q 203 693 226 693 q 138 675 167 693 q 86 631 108 657 q 70 606 76 618 q 42 593 64 593 q 13 605 25 593 q 1 633 1 617 q 21 683 1 660 q 68 726 40 707 q 126 757 96 744 q 179 772 157 769 m 69 163 l 78 163 q 111 144 99 163 q 124 97 124 125 q 76 49 124 49 q 36 61 53 49 q 19 94 19 74 q 32 141 19 122 q 69 163 44 160 z "},"[":{"ha":440,"x_min":1,"x_max":369,"o":"m 322 818 q 354 810 340 819 q 368 781 368 800 q 344 743 369 751 q 292 733 319 735 q 276 735 285 732 q 263 735 268 738 q 255 719 260 733 q 247 700 250 706 q 233 641 239 672 q 221 582 228 610 q 165 375 193 474 q 104 168 136 276 q 98 147 103 161 q 96 131 93 133 q 103 128 97 128 q 115 129 108 128 q 128 132 122 131 q 138 133 135 133 q 167 135 151 135 q 194 131 182 136 q 213 115 207 126 q 215 83 219 104 q 196 61 213 65 q 158 56 179 57 q 115 51 139 54 q 71 49 92 49 q 33 55 50 49 q 10 78 17 61 q 9 124 1 97 q 24 175 17 150 q 88 400 54 292 q 149 631 121 508 q 160 677 156 654 q 171 724 164 700 q 194 783 182 756 q 238 815 206 811 q 262 815 249 818 q 288 814 275 813 q 308 817 299 815 q 322 818 317 818 z "},"\\":{"ha":375,"x_min":6,"x_max":308,"o":"m 13 747 q 38 761 21 754 q 71 751 54 768 q 88 723 82 740 q 100 690 93 706 q 191 458 147 575 q 286 235 235 340 q 297 213 292 224 q 306 192 303 201 q 307 172 308 182 q 296 153 306 163 q 267 140 283 140 q 240 150 251 139 q 222 180 228 161 q 210 214 217 199 q 117 441 160 336 q 29 653 74 546 q 19 676 25 664 q 9 701 13 689 q 6 725 6 714 q 13 747 6 736 z "},"]":{"ha":417,"x_min":4,"x_max":367,"o":"m 50 38 q 17 47 31 38 q 4 78 4 56 q 30 114 4 106 q 85 122 56 122 q 95 122 90 122 q 106 121 100 121 q 120 138 114 121 q 132 178 126 154 q 142 228 138 201 q 151 274 147 254 q 208 481 179 382 q 268 688 238 579 q 273 706 269 694 q 276 724 276 718 q 268 728 276 728 q 235 724 246 728 q 208 721 224 721 q 172 728 188 721 q 156 758 156 735 q 169 787 156 776 q 204 801 183 797 q 250 806 225 806 q 297 807 275 807 q 346 797 325 807 q 367 758 367 788 q 360 720 367 740 q 349 681 354 700 q 285 456 318 564 q 224 225 251 347 q 211 169 217 201 q 196 109 206 138 q 169 60 186 81 q 126 40 153 40 q 109 41 118 40 q 90 42 100 42 q 68 40 79 42 q 50 38 57 38 z "},"}":{"ha":436,"x_min":3,"x_max":367,"o":"m 69 29 q 24 39 46 29 q 3 75 3 49 q 11 103 3 90 q 39 115 19 115 q 54 113 49 115 q 67 110 60 110 q 101 140 83 111 q 137 208 118 168 q 176 289 156 247 q 218 358 197 331 q 235 376 224 365 q 246 389 246 386 q 240 401 246 394 q 228 415 235 407 q 217 435 222 424 q 211 464 211 447 q 223 524 211 494 q 248 580 235 553 q 273 633 261 607 q 285 683 285 658 q 280 715 285 708 q 250 721 275 721 q 219 733 231 721 q 207 765 207 746 q 218 791 207 781 q 257 801 229 801 q 334 773 301 801 q 367 686 367 744 q 355 622 367 651 q 330 565 343 592 q 305 515 317 539 q 293 467 293 490 q 301 449 293 454 q 320 439 310 443 q 339 428 331 435 q 347 404 347 421 q 326 356 347 379 q 290 317 306 333 q 232 228 254 276 q 189 137 210 179 q 142 64 168 94 q 69 29 115 33 z "},"{":{"ha":275,"x_min":4,"x_max":368,"o":"m 301 813 q 347 803 325 813 q 368 767 368 793 q 360 739 368 751 q 332 726 351 726 q 317 729 322 726 q 304 732 311 732 q 270 702 288 731 q 234 634 253 674 q 194 553 215 594 q 153 483 174 511 q 136 466 147 476 q 125 453 125 456 q 131 440 125 446 q 142 426 136 435 q 154 406 149 418 q 160 378 160 394 q 148 317 160 346 q 123 262 136 289 q 98 209 110 235 q 86 158 86 183 q 91 127 86 133 q 121 121 96 121 q 152 108 140 121 q 164 76 164 96 q 153 51 164 61 q 114 40 142 40 q 37 69 69 40 q 4 156 4 97 q 16 220 4 190 q 41 276 28 250 q 66 327 54 303 q 78 375 78 351 q 69 393 78 388 q 51 403 61 399 q 32 414 40 407 q 24 438 24 421 q 44 485 24 463 q 81 525 65 508 q 139 614 117 565 q 182 705 161 663 q 229 778 203 747 q 301 813 256 808 z "},"|":{"ha":206,"x_min":28,"x_max":147,"o":"m 94 838 q 125 835 110 842 q 144 810 140 828 q 144 788 147 799 q 139 767 140 778 q 135 687 135 729 q 133 601 136 644 q 129 436 131 518 q 121 275 128 354 q 118 236 119 256 q 114 197 117 217 q 110 156 113 176 q 110 118 107 136 q 115 102 111 108 q 119 85 119 96 q 105 40 119 63 q 67 21 90 18 q 42 33 50 22 q 31 58 33 43 q 28 94 28 74 q 31 136 29 114 q 40 281 33 214 q 51 425 47 347 q 56 580 56 511 q 58 726 56 649 q 60 763 60 744 q 62 797 60 782 q 72 824 64 813 q 94 838 79 835 z "},"^":{"ha":317,"x_min":33,"x_max":310,"o":"m 206 719 q 165 672 190 700 q 119 618 139 643 q 101 592 108 604 q 69 582 93 579 q 45 594 56 583 q 33 619 35 604 q 44 650 33 636 q 67 678 56 664 q 109 730 85 700 q 150 779 133 760 q 164 799 156 788 q 183 819 172 810 q 208 831 194 828 q 238 829 221 835 q 265 806 256 822 q 278 766 274 789 q 285 717 283 743 q 289 665 286 692 q 294 633 292 649 q 300 601 297 617 q 306 569 303 586 q 309 536 310 551 q 300 510 308 521 q 272 499 292 499 q 244 511 254 499 q 229 542 235 524 q 222 580 224 560 q 217 617 219 600 q 210 667 213 642 q 206 719 208 692 z "},"~":{"ha":440,"x_min":1,"x_max":378,"o":"m 328 408 l 336 408 q 366 398 354 408 q 378 372 378 388 q 369 347 378 363 q 345 315 361 331 q 308 289 329 300 q 260 278 286 278 q 197 290 228 278 q 135 303 165 303 q 103 294 114 303 q 83 276 92 286 q 66 257 75 265 q 40 249 57 249 q 13 259 24 249 q 1 289 1 269 q 14 326 1 308 q 47 356 26 343 q 92 375 67 368 q 142 382 117 382 q 202 369 174 382 q 260 357 231 357 q 281 364 274 357 q 294 379 289 371 q 307 396 300 388 q 328 408 314 404 z "},"_":{"ha":576,"x_min":1,"x_max":529,"o":"m 469 414 q 495 411 482 417 q 517 396 508 406 q 528 373 526 386 q 518 346 529 360 q 482 333 511 338 q 412 327 453 329 q 323 324 371 325 q 231 322 275 322 q 153 322 188 322 q 104 318 118 321 q 74 313 89 315 q 44 310 58 310 q 20 316 31 310 q 6 339 10 322 q 13 370 1 358 q 41 388 24 382 q 78 397 58 394 q 114 400 99 399 q 150 401 124 401 q 211 401 176 401 q 284 401 246 401 q 356 401 322 401 q 416 402 390 401 q 450 406 442 403 q 458 409 454 407 q 469 414 461 411 z "},"D":{"ha":639,"x_min":0,"x_max":733,"o":"m 526 300 q 644 351 594 313 q 667 369 656 360 q 694 379 679 379 q 724 367 714 379 q 733 336 733 354 q 709 296 733 317 q 648 258 685 275 q 568 228 611 240 q 488 217 525 217 q 452 204 461 217 q 432 181 443 192 q 371 123 404 151 q 299 73 338 94 q 217 38 260 51 q 129 24 175 24 q 83 31 106 24 q 42 53 60 39 q 12 88 24 67 q 0 133 0 108 q 12 172 0 160 q 26 201 24 185 q 22 213 26 206 q 18 228 18 219 q 25 258 18 242 q 38 290 32 275 q 87 442 63 371 q 142 589 111 514 q 153 616 146 600 q 168 649 161 632 q 179 681 175 665 q 183 706 183 696 q 182 707 183 707 q 165 699 178 707 q 138 679 153 690 q 110 654 124 668 q 89 631 97 640 q 72 601 79 618 q 43 585 64 585 q 15 597 26 585 q 3 628 3 608 q 24 678 3 653 q 67 722 46 703 q 133 774 96 750 q 215 817 171 799 q 307 847 258 836 q 408 858 356 858 q 507 836 464 858 q 579 777 550 814 q 623 693 608 740 q 638 597 638 646 q 626 510 638 550 q 599 433 615 469 q 563 364 582 397 q 526 300 543 331 m 263 692 q 248 637 260 665 q 225 582 236 608 q 173 449 197 515 q 126 311 149 383 q 117 282 124 300 q 110 257 110 264 q 117 253 110 253 q 128 256 125 253 q 228 276 178 268 q 336 288 278 283 q 355 287 343 288 q 379 286 367 286 q 401 286 393 286 q 414 289 408 286 q 425 299 419 292 q 442 321 431 306 q 481 380 461 349 q 518 447 501 411 q 545 519 535 482 q 556 597 556 557 q 515 734 556 689 q 397 779 475 779 q 320 768 353 779 q 250 744 288 757 q 258 726 254 736 q 263 701 263 717 l 263 692 m 188 189 q 157 182 175 186 q 122 171 139 178 q 92 155 104 164 q 81 135 81 146 q 97 110 81 117 q 132 103 114 103 q 196 116 160 103 q 265 147 232 129 q 319 181 297 164 q 342 207 342 199 q 266 201 301 204 q 188 189 231 197 z "},"@":{"ha":603,"x_min":0,"x_max":538,"o":"m 290 439 q 331 457 304 457 q 361 447 349 457 q 374 417 374 436 q 368 387 374 401 q 355 356 363 372 q 342 322 347 340 q 336 285 336 304 q 342 275 336 275 q 374 293 354 275 q 413 340 394 311 q 446 405 432 368 q 460 479 460 442 q 449 537 460 508 q 419 588 439 565 q 372 623 400 610 q 308 636 343 636 q 219 604 261 636 q 147 521 178 572 q 97 406 115 469 q 79 281 79 343 q 86 224 79 254 q 108 169 93 194 q 149 128 124 144 q 210 113 174 113 q 247 121 229 113 q 283 138 265 129 q 319 156 301 147 q 353 164 336 164 q 379 151 368 164 q 390 122 390 138 q 380 95 390 101 q 351 82 369 89 q 317 67 333 75 q 283 51 300 58 q 246 38 265 43 q 201 32 226 32 q 111 58 149 35 q 49 116 74 81 q 12 194 24 151 q 0 276 0 236 q 19 419 0 343 q 78 562 39 496 q 174 672 117 628 q 307 715 232 715 q 404 698 361 715 q 476 649 447 681 q 522 572 506 617 q 538 475 538 528 q 521 380 538 429 q 476 290 504 331 q 413 222 449 249 q 340 196 378 196 q 281 221 304 196 q 257 281 257 246 l 257 290 q 256 294 257 294 q 245 290 253 294 q 228 279 238 285 q 206 269 218 274 q 183 264 194 264 q 135 289 151 264 q 118 346 118 314 q 126 388 118 364 q 150 431 135 411 q 186 464 165 450 q 232 478 207 478 q 266 467 251 478 q 290 439 281 457 m 235 388 q 231 390 233 389 q 226 393 228 392 q 224 394 225 394 q 210 377 218 393 q 201 356 203 361 q 208 363 203 360 q 219 371 214 367 q 230 379 225 375 q 235 388 235 383 z "},"":{"ha":264,"x_min":3,"x_max":239,"o":"m 56 883 q 60 884 58 883 q 65 885 63 885 q 101 866 89 885 q 114 819 114 847 q 106 777 113 799 q 90 738 100 756 q 69 710 81 721 q 44 699 57 699 q 16 709 29 699 q 3 739 3 719 q 7 757 3 749 q 17 774 11 765 q 26 792 22 782 q 31 814 31 801 q 27 826 31 824 q 22 840 24 829 q 56 883 22 876 m 189 874 q 194 874 192 874 q 199 875 196 875 q 228 861 218 875 q 239 824 239 847 q 232 774 239 796 q 215 735 225 751 q 194 711 206 719 q 172 703 182 703 q 142 715 154 703 q 129 743 129 726 q 135 763 129 758 q 149 778 142 767 q 157 808 156 792 q 160 837 158 824 q 167 860 161 850 q 189 874 172 869 z "},"":{"ha":260,"x_min":3,"x_max":239,"o":"m 186 700 q 181 699 183 700 q 176 699 179 699 q 140 717 153 699 q 128 764 128 736 q 135 806 129 785 q 151 845 142 828 q 172 874 160 863 q 197 885 185 885 q 226 874 213 885 q 239 844 239 864 q 235 826 239 835 q 225 810 231 818 q 215 792 219 801 q 211 769 211 782 q 215 757 211 760 q 219 743 218 754 q 186 700 219 707 m 53 710 q 48 709 50 710 q 43 708 46 708 q 13 722 24 708 q 3 760 3 736 q 10 810 3 788 q 26 848 17 832 q 48 872 36 864 q 69 881 60 881 q 100 869 88 881 q 113 840 113 857 q 106 821 113 825 q 93 806 100 817 q 85 775 86 790 q 82 747 83 760 q 75 724 81 733 q 53 710 69 714 z "},"":{"ha":158,"x_min":3,"x_max":114,"o":"m 56 883 q 60 884 58 883 q 65 885 63 885 q 101 866 89 885 q 114 819 114 847 q 106 777 113 799 q 90 738 100 756 q 69 710 81 721 q 44 699 57 699 q 16 709 29 699 q 3 739 3 719 q 7 757 3 749 q 17 774 11 765 q 26 792 22 782 q 31 814 31 801 q 27 826 31 824 q 22 840 24 829 q 56 883 22 876 z "},"":{"ha":149,"x_min":3,"x_max":114,"o":"m 61 700 q 56 699 58 700 q 51 699 54 699 q 15 717 28 699 q 3 764 3 736 q 10 806 4 785 q 26 845 17 828 q 47 874 35 863 q 72 885 60 885 q 101 874 88 885 q 114 844 114 864 q 110 826 114 835 q 100 810 106 818 q 90 792 94 801 q 86 769 86 782 q 90 757 86 760 q 94 743 93 754 q 61 700 94 707 z "},"`":{"ha":290,"x_min":57,"x_max":274,"o":"m 203 831 q 226 820 214 826 q 251 807 239 814 q 267 785 261 801 q 269 753 274 768 q 249 733 265 739 q 197 746 232 728 q 135 769 169 763 q 74 793 101 776 q 63 807 67 797 q 58 829 58 817 q 59 855 57 842 q 68 878 61 868 q 92 892 76 893 q 125 880 107 890 q 163 855 143 869 q 203 831 183 840 z "},"A":{"ha":756,"x_min":0,"x_max":838,"o":"m 594 118 q 677 185 642 138 q 744 288 713 232 q 768 325 756 304 q 801 346 781 346 q 828 335 818 346 q 838 310 838 325 q 827 267 838 290 q 802 223 817 244 q 772 183 788 201 q 747 151 757 164 q 718 112 733 132 q 684 75 703 92 q 643 48 665 58 q 594 38 621 38 q 555 47 571 38 q 529 69 539 56 q 515 101 519 83 q 511 139 511 119 q 533 281 511 213 q 574 401 554 349 q 531 397 556 399 q 483 392 507 394 q 439 388 460 390 q 408 381 418 385 q 393 369 401 378 q 377 348 385 360 q 362 325 369 336 q 350 308 354 314 q 264 192 307 250 q 192 79 221 133 q 178 49 183 64 q 150 35 172 35 q 117 47 128 35 q 107 74 107 60 q 120 113 107 93 q 142 147 133 133 q 288 360 213 257 q 194 341 243 351 q 97 319 144 331 q 65 310 82 315 q 35 306 47 306 q 9 322 18 308 q 0 350 0 335 q 34 384 0 369 q 116 410 68 399 q 217 430 164 421 q 308 446 269 439 q 335 449 322 449 q 357 453 349 449 q 383 478 368 457 q 406 508 397 499 q 544 679 476 600 q 700 832 613 758 q 733 859 713 843 q 776 875 753 875 q 812 857 796 875 q 828 817 828 839 q 814 776 828 799 q 792 733 800 753 q 739 610 764 674 q 690 486 714 546 q 657 399 674 442 q 627 313 640 357 q 605 221 614 268 q 594 118 596 174 m 501 503 q 488 488 499 500 q 478 472 478 476 q 488 469 478 469 q 540 476 519 469 q 578 482 561 482 q 601 475 588 482 q 650 600 625 538 q 697 722 675 663 q 597 617 647 676 q 501 503 547 558 z "},"B":{"ha":596,"x_min":-60,"x_max":739,"o":"m 396 497 q 492 479 456 497 q 549 425 528 461 q 556 403 554 417 q 561 389 558 389 q 578 394 568 389 q 599 406 589 399 q 619 419 610 413 q 633 428 629 425 q 663 448 646 436 q 699 460 679 460 q 728 448 718 460 q 739 421 739 436 q 715 382 739 400 q 659 348 692 364 q 594 319 626 332 q 544 294 561 306 q 527 272 536 288 q 511 246 518 257 q 444 170 482 208 q 363 101 407 132 q 269 51 318 71 q 168 32 219 32 q 109 40 139 32 q 55 63 79 49 q 15 99 31 78 q 0 146 0 119 q 15 190 0 172 q 44 219 29 208 q 56 226 51 225 q 65 229 61 226 q 72 240 68 232 q 81 268 75 247 q 153 513 115 399 q 240 743 192 628 q 175 710 204 729 q 118 668 146 692 q 67 622 93 647 q 26 565 40 597 q 13 533 19 549 q -15 518 7 518 q -45 528 -31 518 q -60 558 -60 539 q -50 592 -60 574 q -32 622 -40 610 q 44 712 -3 668 q 148 790 90 756 q 269 845 206 824 q 399 867 333 867 q 466 855 436 867 q 518 824 496 843 q 552 778 540 804 q 564 726 564 753 q 547 651 564 685 q 506 591 531 618 q 451 541 481 564 q 396 497 421 518 m 356 567 q 400 602 378 583 q 441 641 422 621 q 472 683 460 661 q 483 728 483 704 q 475 754 483 743 q 453 773 467 765 q 424 784 440 781 q 393 788 408 788 q 364 785 376 788 q 336 776 351 782 q 279 632 310 707 q 226 475 249 557 q 288 517 254 494 q 356 567 322 540 m 406 333 q 429 339 415 336 q 455 346 443 342 q 475 356 467 350 q 483 368 483 361 q 458 408 483 399 q 406 417 433 417 q 349 412 378 417 q 292 399 319 407 q 222 376 244 383 q 192 365 200 369 q 183 356 183 360 q 182 343 183 351 q 173 307 176 322 q 163 272 169 292 q 283 303 224 288 q 406 333 343 318 m 151 181 q 135 175 147 179 q 112 165 124 171 q 91 154 100 160 q 82 144 82 149 q 91 133 82 139 q 113 122 100 126 q 141 114 126 117 q 167 111 156 111 q 240 124 206 111 q 304 158 274 138 q 360 203 335 179 q 407 247 386 226 q 406 251 407 251 q 279 220 347 236 q 151 181 211 204 z "},"C":{"ha":683,"x_min":11,"x_max":806,"o":"m 529 838 q 596 835 563 840 q 658 817 629 829 q 710 786 688 804 q 744 744 732 768 q 759 676 760 717 q 743 601 758 636 q 676 502 718 544 q 588 429 633 460 q 540 400 569 417 q 478 375 510 383 q 439 370 458 371 q 403 374 419 369 q 376 388 386 378 q 365 417 365 399 q 372 438 365 426 q 386 456 378 450 q 414 460 399 463 q 450 461 429 457 q 506 481 478 465 q 559 517 533 496 q 606 561 585 538 q 643 606 628 585 q 665 644 654 621 q 668 693 675 668 q 653 716 665 706 q 626 734 642 726 q 591 746 610 742 q 554 750 572 750 q 453 732 499 751 q 372 689 408 713 q 303 637 333 664 q 246 575 274 610 q 193 507 221 546 q 143 424 165 468 q 108 333 121 381 q 99 238 94 286 q 120 174 101 201 q 167 130 139 147 q 228 106 194 113 q 297 106 263 100 q 397 141 351 115 q 478 190 443 167 q 551 242 514 214 q 624 307 588 271 q 673 355 647 331 q 726 403 699 379 q 749 417 738 410 q 774 422 760 424 q 806 383 804 419 q 799 358 806 371 q 781 333 792 344 q 760 311 771 321 q 742 294 749 301 q 700 256 719 275 q 661 218 681 236 q 576 149 624 183 q 481 85 529 114 q 431 57 457 71 q 376 33 406 43 q 312 17 346 22 q 240 15 278 11 q 119 51 171 22 q 40 129 68 81 q 18 188 25 156 q 11 254 11 219 q 17 324 11 289 q 33 390 22 358 q 82 501 53 450 q 143 593 111 553 q 216 676 178 636 q 300 750 254 717 q 403 807 344 782 q 529 838 461 832 z "}}}
